<svg width="831" height="814" viewBox="0 0 831 814" fill="none" xmlns="http://www.w3.org/2000/svg">
<g clip-path="url(#clip0_15_6450)">
<ellipse cx="74.6594" cy="152.205" rx="67" ry="56.5" transform="rotate(31.5494 74.6594 152.205)" fill="white"/>
<rect x="141.631" y="184.093" width="101.379" height="27.3252" transform="rotate(39.8186 141.631 184.093)" fill="white"/>
<path fill-rule="evenodd" clip-rule="evenodd" d="M18.8631 99.5124C33.2482 87.0614 50.4619 81.6937 69.0712 83.8047L80.3405 86.1623C93.552 89.5731 108.499 97.4017 117.86 106.605L126.998 115.788C126.998 115.788 133.294 123.852 136.961 131.269C139.934 137.293 143.13 150.168 143.13 150.168C143.058 149.752 143.2 150.572 143.13 150.168C144.04 155.858 146.83 162.18 146.314 167.996C146.686 173.229 148.394 174.348 149.384 179.765C149.589 180.17 150.651 184.551 152.421 188.102C160.251 200.454 166.498 205.758 178.692 213.922C178.337 213.684 179.037 214.154 178.692 213.922L205.682 234.459C206.632 235.118 212.492 239.295 213.445 239.949C214.065 240.377 217.03 242.351 217.649 242.78C219.852 244.304 219.839 244.491 222.049 246.006C223.031 246.679 223.892 247.631 224.871 248.307C225.449 248.704 225.49 249.368 226.085 249.776C229.71 252.471 231.471 256.171 232.012 260.596C232.255 265.816 230.691 269.532 227.106 273.699C223.865 277.174 220.361 278.725 215.647 279.278C211.015 279.576 202.308 277.02 199.84 274.309L166.45 243.17C165.631 242.35 159.806 236.875 158.992 236.05C156.274 233.957 154.635 232.663 151.802 230.275C139.232 222.493 129.703 212.305 113.915 212.249C111.65 212.5 109.533 213.074 107.326 213.7C99.5048 215.907 92.4685 217.367 84.4573 217.16C78.8503 216.996 71.2645 215.246 65.9201 213.965C43.8826 208.156 18.8605 185.582 8.57857 166.244C3.86558 156.662 0.172034 147.082 0.608966 136.186C1.53375 122.435 8.31942 109.443 18.8631 99.5124ZM150.267 201.846C148.288 202.832 147.261 203.694 145.809 205.279L144.994 206.189C144.445 206.778 143.9 207.371 143.36 207.969C142.143 209.555 142.143 209.555 142.342 211.287L143.783 212.076C154.006 220.124 163.746 228.393 173.246 236.244C179.346 242.724 180.342 243.766 195.036 257.662C194.116 256.794 195.955 258.53 195.036 257.662C199.696 262.089 206.003 267.925 211.517 271.421C211.535 271.425 214.349 272.146 214.7 271.971C218.341 271.609 220.209 269.258 222.894 266.763C224.148 264.593 223.74 263.866 223.683 261.445C222.535 257.956 220.312 254.218 217.263 252.097C217.263 252.097 213.797 250.02 212.379 249.021C206.217 244.671 199.831 240.771 193.369 236.654C183.785 230.547 174.369 223.303 165.387 216.436C166.054 216.968 164.721 215.904 165.387 216.436C160.55 212.856 154.736 207.039 150.87 202.55C150.665 202.31 150.465 202.078 150.267 201.846ZM140.341 187.261C139.276 187.791 139.276 187.792 138.386 189.022C134.856 194.321 131.076 198.666 126.239 202.924L124.826 204.146C125.313 205.124 125.313 205.124 126.975 205.729L129.075 206.339C131.161 206.961 131.162 206.961 133.074 207.36C134.61 207.234 135.171 207.035 136.322 206.006L137.163 204.979L138.136 203.815C138.988 202.781 139.854 201.757 140.725 200.737C142.063 199.182 143.395 197.622 144.726 196.062L140.341 187.261ZM132.169 143.287C131.104 143.817 128.517 148.155 127.915 149.175C124.178 156.612 125.776 154.252 121.019 161.184C109.39 178.334 97.2601 189.262 79.7797 200.953L73.3515 205.569L75.3376 206.463C83.3092 207.71 86.3279 206.584 94.5403 205.847C94.1525 205.883 94.9399 205.81 94.5403 205.847C99.7121 205.405 105.388 202.208 110.1 199.98C109.441 200.3 110.779 199.649 110.1 199.98C117.709 196.326 122.291 194.159 126.917 187.361C134.795 174.903 134.861 174.452 136.024 159.268C135.926 158.827 134.964 150.849 134.869 150.421C133.826 147.643 133.663 146.062 132.169 143.287ZM63.2368 93.8486C45.4201 94.7532 37.1416 96.1695 23.3052 109.777C23.5849 109.409 23.017 110.155 23.3052 109.777C19.2977 115.034 16.2887 121.142 14.4405 127.315C11.9455 135.648 12.815 136.059 13.6395 145.718C24.5319 140.252 37.0066 128.583 37.0066 128.583C46.3035 119.006 48.05 116.063 55.9975 106C57.0938 104.022 63.4915 96.0727 63.2368 93.8486Z" fill="#091825"/>
<path d="M76.586 95.6022C78.3689 95.6 79.5745 96.1681 81.151 96.851C83.5543 97.8639 85.9404 98.7785 88.448 99.5687C94.2373 101.531 104.583 105.437 107.299 110.889C106.798 111.054 106.798 111.054 106.288 111.222C104.764 111.726 103.243 112.238 101.721 112.75C101.196 112.923 100.671 113.095 100.13 113.273C96.2131 114.524 96.2131 114.524 92.9327 116.872C92.3631 118.558 92.3631 118.558 92.2428 120.484C92.1882 121.009 92.1882 121.009 92.1325 121.544C91.7144 125.906 91.6005 130.271 91.4987 134.626C87.8021 136.702 84.3107 137.938 80.2125 138.918C77.9113 139.503 75.7818 140.312 73.5749 141.206C73.57 141.522 73.5651 141.838 73.5601 142.163C73.4659 143.934 73.2296 145.679 72.9899 147.446C72.8926 148.172 72.7956 148.897 72.6988 149.623C72.6508 149.983 72.6028 150.343 72.5534 150.713C72.2348 153.147 71.9538 155.583 71.6718 158.019C69.5731 158.821 67.6591 159.406 65.4529 159.722C60.2933 160.52 55.1288 162.002 50.4708 164.468C50.4629 164.811 50.455 165.153 50.4468 165.506C50.333 167.801 49.9374 170.077 49.586 172.364C49.5132 172.861 49.4404 173.359 49.3654 173.871C49.2928 174.345 49.2202 174.82 49.1454 175.308C49.08 175.741 49.0146 176.174 48.9472 176.62C48.7046 177.688 48.7046 177.688 47.9097 178.671C46.3545 178.827 44.8425 178.93 43.29 178.99C39.4693 179.163 36.6085 179.316 33.1655 181.317C32.3177 182.561 32.9954 181.342 32.4879 182.536C32.8379 182.361 32.1482 182.705 32.4879 182.536C31.6736 181.719 29.6403 179.891 28.833 179.068C24.9285 174.842 19.7381 165.972 19.7381 165.972C18.99 164.44 16.7348 158.655 16.7348 158.655C17.3364 158.311 17.7993 157.876 18.4191 157.522C42.4551 143.485 63.6271 122.194 74.7277 97.499C75.5442 96.1557 75.5442 96.1557 76.586 95.6022Z" fill="#F9F9F8"/>
<path d="M102.83 122.1C107.479 120.12 110.554 118.94 115.319 117.296C119.189 120.849 122.881 124.432 126.08 128.535C126.343 128.836 126.969 130.552 127.24 130.862C127.829 131.68 128.668 132.675 129.048 134.492C128.398 136.092 127.986 134.539 127.05 136.045C126.143 137.505 125.422 138.923 124.718 140.454C113.82 162.793 92.4896 184.911 69.822 198.308C69.1715 198.731 68.521 199.154 67.8705 199.576C63.1971 202.354 63.1971 202.354 60.2041 201.87C58.2628 201.101 56.5374 200.19 54.7654 199.169C54.1895 198.885 53.6136 198.6 53.0202 198.307C49.7089 196.662 46.5843 194.801 43.5089 192.846C43.0056 192.533 43.0056 192.533 42.492 192.214C40.2045 190.72 40.2045 190.72 39.6553 189.355C39.7227 188.403 39.7227 188.403 40.3148 187.001C42.7631 185.987 45.1436 185.607 47.711 185.253C48.7425 185.107 48.7425 185.107 49.7948 184.959C51.4616 184.768 51.4616 184.768 52.1994 184.954C54.9211 183.815 56.3508 182.974 57.7399 180.533C58.2056 178.69 58.4546 176.86 58.6968 175.007C58.8356 174.025 58.975 173.044 59.1149 172.062C59.1728 171.63 59.2307 171.197 59.2903 170.751C59.4504 169.721 59.4504 169.721 59.7465 169.02C64.026 167.167 68.2938 166.241 72.7884 165.291C76.8416 164.456 76.8416 164.456 80.1979 162.15C81.4273 159.367 81.4992 156.381 81.7813 153.511C81.8755 152.567 81.9715 151.624 82.0698 150.68C82.1106 150.266 82.1514 149.852 82.1934 149.425C82.3549 148.348 82.3549 148.348 82.947 146.947C86.4266 144.928 91.0277 142.837 94.9819 142.611C95.9661 142.159 96.939 141.682 97.9034 141.19C98.4199 140.927 98.9363 140.665 99.4684 140.395C99.8643 140.191 100.26 139.988 100.668 139.778C100.715 139.389 100.762 139 100.81 138.6C101.025 136.821 101.24 135.043 101.456 133.264C101.529 132.653 101.603 132.041 101.679 131.411C102.055 128.307 102.434 125.204 102.83 122.1Z" fill="#2B6684"/>
<path d="M69.9021 121.779C72.245 121.766 73.9064 122.188 75.512 123.672C76.7339 125.568 77.6152 127.256 77.6218 129.579C77.0102 131.624 76.4576 133.055 74.4866 134.337C74.0193 134.555 73.552 134.772 73.0705 134.997C72.6028 135.221 72.1351 135.444 71.6533 135.675C70.4082 136.177 70.4082 136.177 69.106 136.239C68.9517 135.929 68.7973 135.62 68.6383 135.3C68.2341 135.345 67.8298 135.389 67.4134 135.435C66.034 135.426 66.034 135.426 64.7982 134.284C63.6484 132.648 62.6173 131.027 62.7817 128.93C63.845 125.205 65.8574 123.009 69.9021 121.779Z" fill="#C73825"/>
<path d="M83.7416 102.515C86.9626 102.423 89.179 103 91.6865 104.674C93.0633 106.597 93.4145 107.721 93.2948 110.142C92.577 112.399 91.9137 113.554 90.0896 115.256C88.0398 116.128 86.2647 116.638 84.098 117.018C83.9368 116.695 83.7757 116.371 83.6096 116.038C83.2464 116.219 82.8832 116.4 82.509 116.587C79.8112 115.496 78.9429 114.064 77.9282 111.529C77.6082 110.197 77.6082 110.197 77.5019 109.294C77.8651 109.113 78.2283 108.932 78.6025 108.746C78.4414 108.422 78.2803 108.099 78.1142 107.766C78.4775 107.585 78.8407 107.404 79.2149 107.217C79.0538 106.894 78.8926 106.571 78.7266 106.237C80.0978 104.264 81.4282 103.375 83.7416 102.515Z" fill="#C73825"/>
<path d="M53.5311 141.44C55.7331 141.963 56.8686 142.591 58.2284 144.353C59.4422 146.544 59.9573 148.079 59.4236 150.596C58.7918 152.444 58.3585 153.029 56.8565 154.427C54.1734 155.706 52.3688 155.985 49.4584 155.522C47.0137 154.324 45.9419 152.752 44.8178 150.335C44.7402 149.752 44.6625 149.169 44.5825 148.568C44.9236 148.398 45.2648 148.228 45.6162 148.053C45.589 147.678 45.5618 147.303 45.5338 146.916C45.8578 142.936 49.972 141.421 53.5311 141.44Z" fill="#C73825"/>
<path d="M34.167 158.195C35.9712 158.304 35.9712 158.304 37.755 159.209C38.5073 160.364 38.5073 160.364 39.1858 161.746C39.4146 162.199 39.6434 162.651 39.8792 163.117C40.3843 164.49 40.4509 165.442 40.266 166.924C39.9136 167.1 39.5611 167.276 39.1981 167.457C39.3555 167.773 39.513 168.089 39.6752 168.414C38.1556 170.508 36.771 171.177 34.3252 172.047C32.1085 172.546 30.6475 172.152 28.5756 171.553C26.7039 170.273 25.8946 168.131 25.1785 166.073C25.7322 161.256 29.2223 158.824 34.167 158.195Z" fill="#C73825"/>
<path fill-rule="evenodd" clip-rule="evenodd" d="M354.012 7.20791C381.602 -2.69384 438.491 -4.67679 461.945 16.0868C465.933 20.3573 468.646 24.4206 470.527 29.9472C470.684 29.5413 470.841 29.1346 471 28.7226L471.192 28.2235C475.337 18.1308 480.242 13.2186 490.29 8.62393C503.594 3.08278 517.91 2.33641 532.136 2.53506C534.856 2.57189 537.575 2.57559 540.294 2.5751C553.415 2.62633 566.206 3.28718 578.715 7.63369C579.852 8.02334 579.852 8.02419 581.013 8.42178C590.296 11.7511 599.029 16.4679 604.527 24.9472C605.937 29.1769 605.877 33.4551 606.044 37.8778C606.204 41.114 606.509 43.8914 607.563 46.9657C608.756 50.6525 608.658 54.004 608.527 57.8222C608.396 65.0202 608.825 72.0354 609.527 79.1972C611.436 99.683 611.632 120.571 608.527 140.947L608.436 141.555C608.332 142.25 608.227 142.95 608.121 143.666C606.377 155.047 604.18 166.196 601.015 177.273C600.481 179.154 599.999 181.049 599.527 182.947L600.527 183.947L600.531 183.942C607.311 176.536 607.313 176.534 613.965 169.009C617.774 164.629 621.704 160.361 625.637 156.091C627.531 154.034 629.417 151.969 631.292 149.896C635.798 144.928 640.361 140.082 645.152 135.384C649.515 131.064 653.454 126.567 657.274 121.763C659.661 118.78 662.138 115.886 664.622 112.983L664.652 112.947C674.731 100.815 683.259 86.2317 687.527 70.9472C687.877 69.97 688.225 68.992 688.585 67.9853C691.782 58.1414 691.816 49.0665 691.379 38.7831L691.277 35.497C691.231 34.5244 691.185 33.5518 691.137 32.5497C691.648 29.1412 692.815 28.0032 695.527 25.9472C699.783 25.7866 702.601 26.6781 705.902 29.2597C709.835 32.9306 712.854 37.2622 716.008 41.5985C718.68 45.2158 721.581 48.6143 724.527 52.0097C725.556 53.197 726.585 54.3847 727.613 55.5722C728.108 56.143 728.603 56.7135 729.112 57.3017C734.817 63.9314 740.209 70.7973 745.51 77.7509C749.539 83.0134 753.722 88.1465 757.917 93.2782C760.707 96.6967 763.47 100.129 766.152 103.634C768.505 106.697 770.96 109.653 773.471 112.586C775.842 115.357 778.19 118.147 780.527 120.947C780.981 121.488 781.434 122.03 781.901 122.588C783.192 124.149 784.454 125.735 785.715 127.322L787.945 130.095C789.927 133.666 790.041 135.921 789.527 139.947C788.293 141.865 788.293 141.865 786.527 142.947C784.512 143.31 784.512 143.31 782.277 143.259L780.074 143.247C777.527 142.947 777.526 142.947 774.546 141.947C768.993 140.283 763.21 140.618 757.465 140.634L757.359 140.633C756.255 140.617 755.151 140.601 754.014 140.585C740.712 140.578 728.706 143.876 716.277 148.384C714.498 149.022 714.498 149.022 712.682 149.673C700.684 154.077 689.184 159.403 677.697 165.004C675.527 165.947 675.527 165.947 673.527 165.947C677.729 170.822 682.011 175.623 686.34 180.384C686.82 180.916 687.3 181.448 687.793 181.996C690.351 184.858 690.352 184.858 693.527 186.947C702.813 186.754 712.052 185.453 721.237 184.159L721.414 184.134C722.677 183.96 723.942 183.787 725.244 183.608C728.562 183.151 731.88 182.69 735.198 182.228C739.871 181.577 744.544 180.93 749.219 180.286C751.694 179.945 754.17 179.601 756.645 179.254C800.413 173.206 800.414 173.206 818.671 186.509C825.333 192.547 828.947 201.37 829.73 210.24C830.78 234.166 830.714 258.108 830.712 282.053C830.712 288.056 830.726 294.058 830.744 300.061C830.755 304.724 830.756 309.388 830.755 314.051C830.756 316.266 830.762 318.481 830.77 320.696C830.779 323.776 830.776 326.857 830.77 329.936C830.776 330.836 830.782 331.735 830.787 332.662C830.728 344.576 826.492 356.879 818.465 365.884C811.058 372.502 799.426 377.947 789.527 377.947C789.546 378.911 789.564 379.875 789.582 380.869C789.711 390.813 789.126 400.512 787.965 410.384L787.923 410.743C787.852 411.366 787.78 411.992 787.707 412.633C785.764 429.326 782.36 445.599 778.527 461.947C778.089 463.882 777.649 465.816 777.21 467.751C764.24 523.546 732.786 580.249 693.449 621.814C691.31 624.078 689.259 626.402 687.227 628.763C683.211 633.377 678.925 637.696 674.59 642.009L672.287 644.324C647.085 669.483 616.66 690.933 585.402 707.919C583.672 708.867 581.958 709.845 580.246 710.826C553.514 725.785 523.785 736.669 493.961 743.386C492.228 743.785 490.5 744.21 488.777 744.652C478.822 747.133 468.778 748.332 458.61 749.547L458.402 749.572C456.628 749.79 454.853 750.009 453.078 750.228C414.82 754.925 375.116 754.459 337.527 744.947C336.566 744.706 335.605 744.465 334.614 744.217C326.882 742.254 319.2 740.13 311.527 737.947C310.462 737.648 309.397 737.349 308.299 737.041C276.15 727.942 246.123 714.454 217.967 696.491C215.694 695.052 213.406 693.643 211.106 692.247C204.259 688.082 197.738 683.749 191.458 678.764C187.283 675.464 182.946 672.473 178.527 669.509C171.615 664.844 165.295 659.719 159.023 654.236C156.835 652.35 154.588 650.538 152.339 648.725L151.84 648.322C144.482 642.313 137.426 636.244 131.296 628.966C129.346 626.74 127.274 624.697 125.152 622.634C115.838 613.382 108.292 602.73 100.726 592.05L100.135 591.215C99.1052 589.761 98.071 588.31 97.0327 586.862C74.4634 555.36 58.1628 517.698 49.5278 479.947L47.6069 479.95C32.3383 479.886 21.4841 479.244 9.52685 468.947C8.01524 467.087 8.01511 467.087 6.83935 465.197C6.24658 464.277 6.24624 464.276 5.64306 463.341L5.64013 463.337C3.00302 457.674 2.25895 451.715 1.90771 445.537L1.78467 443.398C1.65426 441.042 1.53797 438.686 1.42529 436.329L1.29931 433.805C0.208824 411.502 0.152663 389.183 0.156735 366.858C0.156941 360.927 0.129209 354.996 0.095212 349.065C0.0729299 344.423 0.068764 339.782 0.0698213 335.141C0.0674841 332.952 0.0590696 330.763 0.0434542 328.575C-0.140451 300.257 -0.141089 300.257 8.70654 289.72C17.2084 281.437 26.7349 277.373 38.3237 275.615L39.4272 275.444C39.8704 275.376 40.3173 275.307 40.771 275.236C53.8686 273.248 67.0104 271.548 80.1421 269.802C84.4445 269.229 88.7464 268.653 93.0483 268.077L93.1606 268.062C96.731 267.585 100.302 267.108 103.873 266.635C110.226 265.792 116.579 264.944 122.927 264.062C125.001 263.775 127.075 263.489 129.15 263.205C131.704 262.854 134.257 262.498 136.809 262.137C143.118 261.274 157.632 258.313 164 258.5C164.967 260.16 194.417 252.909 195.527 253.947C197.155 253.906 198.781 253.785 200.402 253.634L203.628 253.337C211.264 252.572 218.897 251.769 226.527 250.947C225.818 249.688 225.818 249.688 225.094 248.404C207.051 215.852 193.668 177.143 190.527 139.947C190.418 138.771 190.308 137.595 190.195 136.384C189.887 132.573 189.671 128.767 189.527 124.947C189.484 123.809 189.484 123.809 189.441 122.648C189.101 111.941 189.594 101.463 190.84 90.8222C190.958 89.804 191.075 88.7853 191.196 87.7362C192.065 80.9466 193.56 74.5009 195.527 67.9472H193.527C191.224 58.6503 190.218 49.3476 193.035 40.0673C193.66 37.374 193.722 34.7705 193.84 32.0097C194.36 25.1371 196.345 20.1726 201.215 15.2353C217.076 2.21663 239.403 2.40453 258.866 2.56826L259.277 2.57119L262.202 2.58389C310.002 2.81574 310.003 2.8154 326.156 17.4188C329.253 20.8853 330.9 24.6642 332.527 28.9472C332.796 28.3065 333.064 27.6649 333.34 27.0048C337.928 16.8777 344.307 12.2684 354.012 7.20791ZM332 172C327.958 189.525 322.646 206.598 315.752 223.216C313.596 228.411 311.708 233.641 310 239C313.494 239 316.788 238.693 320.247 238.238C321.081 238.125 321.893 238.016 322.703 237.906C325.315 237.56 327.926 237.214 330.537 236.864C332.353 236.62 334.168 236.378 335.984 236.136C341.323 235.427 346.662 234.715 352 234C351.325 230.258 350.249 227.027 348.728 223.534C341.988 208.096 337.751 192.203 334.664 175.672C334.438 174.423 334.218 173.212 334 172H332ZM469 171C466.181 180.634 462.933 190.051 459.375 199.438C456.772 206.253 454.252 213.06 452 220C455.955 220.086 459.783 219.872 463.71 219.39C464.403 219.3 465.077 219.212 465.75 219.125C471.892 218.344 477.956 217.366 484 216C484 214 484 214 483.288 212.16C478.839 200.528 478.838 200.528 475.375 188.562C474.784 186.521 474.191 184.477 473.591 182.437C473.398 181.78 473.211 181.142 473.023 180.504C471.955 176.815 471.135 174.203 469 171Z" fill="#081825"/>
<path d="M761 446C759.005 454.904 756.881 463.742 754.312 472.5C754.098 473.235 753.884 473.971 753.663 474.728C752.129 479.871 752.129 479.871 751 481C749.292 481.275 747.575 481.492 745.855 481.684C744.785 481.807 743.714 481.93 742.611 482.057C741.481 482.182 740.352 482.308 739.188 482.437C736.993 482.683 734.799 482.932 732.605 483.184C731.627 483.292 730.649 483.401 729.641 483.513C726.53 483.929 723.453 484.423 720.36 484.952C714.136 486.003 707.898 486.823 701.633 487.586C700.487 487.728 699.342 487.869 698.161 488.016C695.732 488.316 693.303 488.616 690.873 488.914C684.568 489.689 678.265 490.474 671.961 491.258C670.733 491.41 669.506 491.563 668.241 491.72C650.929 493.875 633.629 496.097 616.39 498.786C606.061 500.354 595.681 501.554 585.314 502.831C575.105 504.089 564.914 505.379 554.752 506.979C548.642 507.933 542.515 508.696 536.375 509.437C528.094 510.439 519.861 511.619 511.625 512.937C501.441 514.56 491.244 515.839 481 517C471.089 518.124 461.225 519.347 451.375 520.937C440.651 522.663 429.904 524.055 419.125 525.375C404.339 527.187 389.571 529.104 374.812 531.125C373.918 531.247 373.024 531.369 372.103 531.495C363.472 532.676 354.844 533.875 346.223 535.122C335.293 536.702 324.349 538.13 313.392 539.504C297.53 541.495 281.683 543.564 265.854 545.804C252.038 547.755 238.199 549.508 224.355 551.246C206.412 553.506 188.509 556.014 170.616 558.64C161.095 560.031 151.584 561.323 142.015 562.339C135.585 563.025 129.224 563.981 122.846 565.031C118.16 565.772 113.744 566.14 109 566C108.486 565.002 108.486 565.002 107.962 563.984C106.395 560.946 104.823 557.91 103.25 554.875C102.711 553.828 102.172 552.782 101.617 551.703C98.3688 545.393 98.3688 545.393 94.6094 539.383C93 537 93 537 93 535C102.897 533.056 112.786 531.608 122.812 530.5C133.129 529.359 143.37 527.964 153.624 526.366C177.905 522.624 202.299 519.394 226.688 516.437C234.321 515.51 241.908 514.406 249.5 513.187C261.964 511.199 274.474 509.66 287 508.125C302.732 506.196 318.439 504.151 334.125 501.875C334.995 501.749 335.865 501.623 336.762 501.493C340.158 501 343.553 500.508 346.949 500.015C361.956 497.841 376.989 495.853 392.039 494.008C394.776 493.672 397.513 493.336 400.25 493C401.265 492.875 401.265 492.875 402.301 492.748C411.06 491.67 419.786 490.458 428.5 489.062C439.306 487.335 450.139 485.95 461 484.625C474.527 482.974 488.018 481.168 501.5 479.187C514.306 477.308 527.125 475.578 539.969 473.98C540.668 473.893 541.367 473.806 542.087 473.717C549.089 472.846 556.093 471.984 563.098 471.134C577.135 469.428 591.125 467.582 605.091 465.375C613.159 464.106 621.229 463.051 629.346 462.161C632.943 461.765 636.538 461.35 640.133 460.934C640.828 460.853 641.523 460.773 642.239 460.69C647.594 460.063 652.924 459.332 658.25 458.5C680.486 455.03 702.834 452.378 725.182 449.75C726.461 449.6 726.461 449.6 727.766 449.447C729.443 449.25 731.121 449.053 732.798 448.857C736.747 448.393 740.694 447.916 744.638 447.407C745.366 447.314 746.095 447.22 746.845 447.123C748.804 446.87 750.762 446.612 752.719 446.354C755.518 446.052 758.19 445.927 761 446Z" fill="white"/>
<path d="M746 502C743.862 509.007 741.077 515.523 737.897 522.12C736.915 524.178 735.962 526.249 735.008 528.32C734.319 529.777 733.629 531.232 732.938 532.688C732.621 533.383 732.305 534.079 731.98 534.795C730.585 537.675 729.507 539.684 726.758 541.398C723.168 542.181 719.59 542.606 715.938 542.938C709.343 543.602 702.8 544.424 696.25 545.438C666.278 550.043 666.278 550.043 654.145 550.789C651.816 550.938 651.816 550.938 649 552C647.016 552.286 645.027 552.534 643.035 552.762C641.783 552.908 640.531 553.054 639.241 553.205C638.564 553.283 637.887 553.361 637.19 553.441C622.873 555.098 608.59 556.971 594.312 558.938C590.543 559.456 586.773 559.974 583.004 560.492C582.076 560.62 581.148 560.747 580.192 560.879C571.048 562.134 561.901 563.358 552.75 564.562C551.989 564.663 551.227 564.763 550.443 564.866C536.143 566.746 521.833 568.539 507.519 570.301C499.594 571.279 491.682 572.304 483.78 573.453C475.484 574.654 467.179 575.795 458.875 576.938C457.91 577.07 456.945 577.203 455.951 577.34C442.853 579.138 429.763 580.807 416.601 582.062C412.061 582.505 407.624 583.02 403.16 583.969C397.352 585.2 391.498 585.847 385.603 586.517C371.516 588.125 357.475 590.011 343.438 592C331.176 593.734 318.917 595.432 306.625 596.938C292.823 598.631 279.032 600.401 265.245 602.206C262.795 602.526 260.344 602.845 257.894 603.162C254.451 603.608 251.009 604.059 247.566 604.512C245.988 604.715 245.988 604.715 244.377 604.922C243.418 605.049 242.459 605.176 241.471 605.307C240.628 605.417 239.785 605.528 238.917 605.641C236.998 605.814 236.998 605.814 236 607C233.326 607.376 230.664 607.694 227.98 607.98C226.254 608.174 224.528 608.368 222.802 608.562C221.886 608.664 220.97 608.765 220.027 608.87C202.984 610.774 186.085 613.117 169.2 616.12C168.486 616.245 167.772 616.371 167.037 616.5C165.13 616.838 163.225 617.183 161.319 617.529C158.139 617.98 155.206 618.19 152 618C150.199 616.602 150.199 616.602 148.688 614.625C148.101 613.892 147.514 613.158 146.91 612.402C145.965 611.213 145.965 611.213 145 610C143.552 608.387 142.093 606.783 140.625 605.188C127.563 590.689 127.563 590.689 126 586C156.409 580.338 187.176 576.526 217.873 572.788C227.774 571.582 237.622 570.166 247.475 568.619C278.43 563.787 309.539 559.85 340.617 555.902C341.996 555.727 343.374 555.551 344.753 555.375C347.249 555.058 349.745 554.743 352.241 554.431C358.88 553.588 365.482 552.613 372.086 551.539C382.336 549.883 392.623 548.673 402.938 547.5C414.315 546.204 425.649 544.795 436.967 543.048C443.939 541.982 450.919 541.188 457.938 540.5C468.631 539.398 479.251 538.056 489.882 536.465C496.481 535.48 503.084 534.517 509.688 533.562C510.427 533.455 511.166 533.348 511.928 533.238C524.863 531.372 537.819 529.774 550.809 528.344C557.145 527.638 563.375 526.809 569.61 525.471C574.161 524.574 578.77 524.1 583.375 523.562C595.468 522.102 607.503 520.354 619.531 518.438C626.101 517.397 632.677 516.561 639.286 515.82C644.678 515.198 650.021 514.383 655.375 513.5C661.387 512.515 667.373 511.704 673.438 511.125C682.892 510.214 692.285 508.889 701.688 507.562C712.492 506.039 723.297 504.537 734.125 503.188C735.113 503.064 736.102 502.94 737.12 502.813C743.725 502 743.725 502 746 502Z" fill="#2B6684"/>
<path d="M711 564C710.67 565.32 710.34 566.64 710 568C709.34 568 708.68 568 708 568C707.794 568.672 707.588 569.343 707.375 570.035C705.513 574.05 702.847 577.076 700 580.438C695.126 586.285 690.541 592.221 686.336 598.57C683.368 602.918 680.546 605.478 675.306 606.553C674.338 606.637 673.369 606.722 672.371 606.809C671.267 606.914 670.164 607.019 669.026 607.127C667.25 607.281 667.25 607.281 665.438 607.438C654.22 608.517 643.09 609.896 631.943 611.554C624.178 612.706 616.403 613.725 608.612 614.679C603.174 615.347 597.738 616.024 592.301 616.699C591.039 616.856 589.777 617.013 588.476 617.174C558.666 620.879 528.872 624.69 499.095 628.658C487.015 630.267 474.932 631.851 462.848 633.433C459.01 633.936 455.171 634.439 451.333 634.943C440.2 636.402 429.066 637.861 417.932 639.317C366.395 645.955 366.395 645.955 314.947 653.242C314.243 653.348 313.538 653.454 312.812 653.563C312.117 653.667 311.422 653.771 310.706 653.879C296.468 656.007 282.19 657.698 267.888 659.326C261.421 660.063 254.96 660.831 248.5 661.625C247.105 661.792 247.105 661.792 245.681 661.961C240.454 662.608 235.331 663.492 230.174 664.563C226.93 665.215 223.715 665.567 220.418 665.813C218.038 665.958 218.038 665.958 215.863 666.375C207.665 667.345 201.262 661.589 195 657C194.124 656.359 194.124 656.359 193.229 655.705C189.416 652.888 185.693 649.974 182 647C181.157 646.325 180.314 645.649 179.445 644.953C173.951 640.378 173.951 640.378 173 636C183.911 633.662 194.815 631.946 205.875 630.5C207.51 630.282 209.145 630.064 210.781 629.846C221.09 628.478 231.409 627.219 241.74 626.021C248.083 625.272 254.354 624.311 260.641 623.193C268.246 621.88 275.903 620.989 283.562 620.063C294.556 618.731 305.495 617.232 316.418 615.395C322.851 614.316 329.294 613.404 335.762 612.558C340.499 611.938 345.232 611.286 349.965 610.633C371.96 607.607 393.962 604.696 416 602C438.239 599.311 438.239 599.311 460.414 596.144C471.718 594.4 483.067 592.974 494.406 591.478C500.372 590.685 506.335 589.866 512.296 589.039C517.3 588.35 522.308 587.712 527.32 587.094C536.286 585.985 545.234 584.749 554.183 583.514C578.273 580.191 578.273 580.191 589.07 578.859C589.767 578.774 590.463 578.688 591.18 578.599C594.309 578.215 597.439 577.838 600.57 577.469C608.388 576.526 616.155 575.368 623.934 574.148C637.876 571.97 651.852 570.087 665.846 568.28C669.296 567.835 672.744 567.379 676.192 566.922C679.553 566.478 682.915 566.044 686.277 565.609C687.495 565.447 688.713 565.285 689.968 565.117C697.023 564.219 703.888 563.791 711 564Z" fill="#C73825"/>
<path d="M321 76C332.669 118.229 321.846 172.098 306 212C305.52 213.285 305.044 214.572 304.57 215.859C303.316 219.246 302.04 222.624 300.755 225.999C300.048 227.872 299.361 229.752 298.676 231.633C298.267 232.703 297.859 233.773 297.438 234.875C297.086 235.821 296.734 236.767 296.371 237.742C294.558 240.727 293.321 240.941 290 242C287.165 242.497 284.367 242.926 281.516 243.289C280.701 243.397 279.886 243.505 279.046 243.617C277.325 243.843 275.604 244.067 273.882 244.287C271.271 244.622 268.663 244.97 266.055 245.32C264.375 245.54 262.695 245.759 261.016 245.977C259.862 246.131 259.862 246.131 258.685 246.289C247.735 247.667 247.735 247.667 243 247C240.617 244.648 240.617 244.648 238.875 241.375C238.551 240.779 238.226 240.184 237.892 239.57C237.222 238.326 236.567 237.072 235.928 235.812C235.1 234.195 234.203 232.614 233.297 231.039C226.403 218.508 222.437 204.541 218 191C217.654 189.96 217.307 188.921 216.951 187.85C208.746 163.091 203.585 137.175 203.739 111.036C203.75 108.869 203.739 106.702 203.727 104.535C203.719 95.5085 204.452 86.9134 206 78C215.466 79.4664 215.466 79.4664 218 82C218.181 84.7655 218.278 87.4822 218.312 90.25C218.342 91.0144 218.371 91.7788 218.4 92.5664C218.46 97.8683 217.53 99.9041 214 104C213.521 106.891 213.521 106.891 213.75 109.812C213.786 110.788 213.822 111.764 213.859 112.77C213.906 113.506 213.952 114.242 214 115C214.66 115 215.32 115 216 115C216.495 115.66 216.99 116.32 217.5 117C220.878 119.703 223.352 119.621 227.586 119.465C231.239 118.761 232.842 116.924 235 114C236.237 111.526 236.133 109.821 236.125 107.062C236.128 106.187 236.13 105.312 236.133 104.41C236.098 101.855 236.098 101.855 235 99C234.01 98.67 233.02 98.34 232 98C232 93.71 232 89.42 232 85C233.049 85.1444 234.099 85.2887 235.18 85.4375C246.672 86.8661 258.06 87.1987 269.625 87.1875C270.36 87.1882 271.095 87.189 271.852 87.1897C279.946 87.1888 287.961 87.0582 296 86C297.084 90.0065 297.731 93.8776 297 98C295.883 99.7578 295.883 99.7578 294.5 101.438C291.735 104.871 291.469 107.455 291.531 111.789C292.171 114.804 293.018 116.622 295 119C298.089 119.644 298.089 119.644 301.5 119.375C302.645 119.341 303.789 119.308 304.969 119.273C308.044 119.113 308.044 119.113 311 118C312.184 115.624 312.184 115.624 313 113C313.33 112.01 313.66 111.02 314 110C314.333 106.542 314.333 106.542 314 103C313.256 102.201 313.256 102.201 312.496 101.387C310.105 97.5716 310.686 93.6492 310.812 89.25C310.833 87.9178 310.833 87.9178 310.854 86.5586C310.889 84.3718 310.938 82.1862 311 80C312.289 79.3285 313.581 78.6629 314.875 78C315.594 77.6287 316.314 77.2575 317.055 76.875C319 76 319 76 321 76Z" fill="#C83925"/>
<path d="M458 76C462.052 84.9853 462.2 92.8784 462.188 102.688C462.188 103.749 462.188 103.749 462.188 104.833C462.133 149.616 462.133 149.616 455.906 166.492C454.955 169.124 454.127 171.784 453.311 174.461C449.372 187.352 444.939 199.993 439.75 212.438C439.238 213.673 439.238 213.673 438.716 214.933C438.392 215.696 438.068 216.46 437.734 217.246C437.448 217.923 437.161 218.601 436.866 219.299C436 221 436 221 434 223C431.35 223.544 431.35 223.544 427.946 223.961C426.674 224.121 425.403 224.281 424.093 224.446C422.698 224.613 421.304 224.779 419.91 224.945C418.485 225.121 417.06 225.298 415.636 225.475C412.648 225.845 409.659 226.209 406.67 226.569C402.838 227.03 399.007 227.501 395.176 227.974C391.526 228.426 387.874 228.873 384.223 229.32C383.525 229.406 382.827 229.491 382.109 229.58C380.134 229.821 378.159 230.059 376.184 230.297C374.497 230.501 374.497 230.501 372.777 230.71C370 231 370 231 367 231C365.576 227.899 364.162 224.794 362.75 221.688C362.354 220.826 361.959 219.964 361.551 219.076C354.953 204.529 350.893 189.455 347 174C346.81 173.251 346.62 172.502 346.424 171.73C341.551 151.839 341.828 130.455 341.75 110.062C341.745 109.365 341.739 108.668 341.734 107.949C341.676 98.1323 342.471 88.6869 344 79C347.3 79.33 350.6 79.66 354 80C354.108 82.8968 354.187 85.7896 354.25 88.6875C354.3 89.9124 354.3 89.9124 354.352 91.1621C354.439 96.5774 353.773 98.8908 350 103C348.9 107.652 349.605 111.25 351.812 115.438C353.923 118.146 353.923 118.146 357 120C362.411 119.796 365.85 118.475 370 115C372.331 111.08 372.533 107.489 372 103C370.816 100.908 369.482 98.9737 368.117 96.9961C366.423 93.9699 366.587 91.3702 367 88C368 87 368 87 371.069 86.9182C372.446 86.9319 373.823 86.9504 375.199 86.9727C376.724 86.987 378.249 87.0007 379.774 87.0139C380.978 87.0264 380.978 87.0264 382.207 87.0391C396.928 87.178 411.37 86.7754 426 85C427.694 84.8094 429.388 84.6205 431.082 84.4336C433.021 84.219 433.021 84.219 435 84C434.735 90.7153 433.796 94.3673 430 100C429.228 104.569 429.687 108.953 432 113C433.305 114.036 434.635 115.044 436 116C436 116.66 436 117.32 436 118C444.053 117.701 444.053 117.701 451 114C452.247 110.259 452.67 106.879 452 103C450.859 101.185 450.859 101.185 449.438 99.4375C445.926 94.3819 446.496 89.1716 447.078 83.3242C448 80 448 80 449.797 78.1445C452.569 76.7432 454.89 76 458 76Z" fill="#2B6684"/>
<path d="M597 76C601.095 110.661 597.767 150.433 585.297 183.148C584.248 185.961 583.755 188.563 583.391 191.539C582.488 196.711 581.309 200.726 577 204C567.125 207.476 556.304 207.824 545.939 208.598C541.153 208.966 536.401 209.51 531.641 210.121C530.896 210.217 530.152 210.312 529.385 210.41C527.923 210.599 526.461 210.788 524.998 210.978C516.015 212.129 507.016 213.148 498 214C490.833 197.826 486.189 181.843 483.386 164.376C483.063 162.39 482.709 160.409 482.348 158.43C479.842 144.711 479.814 130.868 479.815 116.969C479.812 114.071 479.794 111.173 479.775 108.275C479.744 97.6687 480.2 87.4666 482 77C488.75 78.75 488.75 78.75 491 81C491.226 83.9787 491.324 86.8342 491.312 89.8125C491.329 90.6201 491.345 91.4277 491.361 92.2598C491.365 97.1386 490.837 99.8926 488 104C487.592 109.144 487.792 113.235 490 118C494.357 119.452 498.451 119.637 503 119C506.206 117.368 508.25 115.023 510.375 112.125C511.908 106.912 511.268 101.877 509 97C507.68 96.34 506.36 95.68 505 95C505 91.04 505 87.08 505 83C506.284 83.2166 507.568 83.4331 508.891 83.6562C530.239 87.0904 550.524 85.9054 572 84C572.02 85.6093 572.035 87.2187 572.047 88.8281C572.056 89.7243 572.064 90.6206 572.073 91.5439C571.942 95.9321 570.447 98.395 567.875 101.875C565.612 105.647 565.449 107.667 566 112C567.696 115.816 569.151 117.474 573 119C577.844 119.338 581.176 118.652 585 115.625C588.054 111.616 588.383 108.197 588.367 103.316C587.949 100.675 587.233 99.6803 585.5 97.6875C582.126 93.6462 582.561 89.6435 582.727 84.5742C583 82 583 82 584 80C585.926 78.9297 585.926 78.9297 588.312 77.875C589.092 77.5218 589.872 77.1686 590.676 76.8047C593 76 593 76 597 76Z" fill="#C83925"/>
<path d="M658 629C653.357 633.928 648.369 638.231 643.098 642.473C639.067 645.762 635.133 649.158 631.211 652.575C630.093 653.542 628.969 654.5 627.838 655.451C626.517 656.564 625.215 657.699 623.926 658.848C618.399 663.537 613.946 665.269 606.812 666.187C605.833 666.336 604.853 666.484 603.844 666.636C600.566 667.122 597.284 667.563 594 668C591.557 668.341 589.115 668.682 586.672 669.023C574.291 670.729 561.891 672.27 549.487 673.792C541.559 674.777 533.65 675.88 525.741 676.996C510.698 679.119 495.64 681.075 480.562 682.937C463.925 684.993 447.301 687.132 430.687 689.371C419.848 690.831 409.006 692.265 398.156 693.641C397.089 693.776 396.022 693.911 394.923 694.051C389.774 694.703 384.626 695.352 379.476 695.996C371.182 697.039 362.923 698.123 354.687 699.562C349.69 700.377 344.657 700.89 339.625 701.437C329.287 702.594 318.981 703.909 308.68 705.352C288.886 708.116 288.886 708.116 283.293 705.484C282.511 705.121 281.729 704.758 280.924 704.384C279.959 703.927 278.994 703.471 278 703C276.723 702.406 275.446 701.812 274.168 701.219C270.464 699.498 266.766 697.765 263.069 696.027C260.743 694.934 258.414 693.845 256.086 692.756C254.594 692.055 253.101 691.354 251.609 690.652C250.92 690.33 250.23 690.008 249.519 689.677C245.89 687.965 242.354 686.211 239 684C239 683.67 239 683.34 239 683C256.883 680.165 274.777 677.579 292.75 675.375C293.608 675.27 294.466 675.165 295.35 675.056C296.201 674.952 297.052 674.847 297.929 674.74C299.6 674.535 301.271 674.33 302.941 674.125C303.742 674.027 304.542 673.929 305.367 673.827C315.379 672.592 325.357 671.147 335.332 669.65C346.886 667.922 358.457 666.458 370.062 665.125C382.502 663.696 394.903 662.08 407.299 660.316C423.41 658.027 439.555 656.025 455.708 654.055C464.285 653.004 472.829 651.934 481.342 650.436C487.388 649.445 493.496 648.884 499.586 648.232C506.25 647.495 512.868 646.584 519.492 645.562C531.094 643.78 542.739 642.447 554.4 641.122C557.113 640.813 559.826 640.498 562.539 640.184C563.746 640.049 563.746 640.049 564.976 639.912C569.948 639.333 574.799 638.469 579.699 637.453C582.635 636.875 585.563 636.518 588.539 636.219C589.687 636.1 590.836 635.982 592.019 635.86C593.209 635.741 594.399 635.622 595.625 635.5C598.141 635.239 600.656 634.978 603.172 634.715C604.365 634.591 605.558 634.467 606.787 634.339C615.052 633.466 623.287 632.379 631.518 631.236C634.274 630.855 637.031 630.477 639.788 630.1C641.85 629.816 643.911 629.524 645.972 629.233C647.237 629.059 648.502 628.886 649.805 628.707C650.949 628.547 652.094 628.387 653.273 628.222C656 628 656 628 658 629Z" fill="white"/>
<path d="M149 693C151.31 694.729 153.34 696.421 155.437 698.375C167.997 709.576 181.913 718.838 196 728C197.029 728.674 198.057 729.348 199.117 730.043C221.227 744.094 245.295 756.249 269.688 765.808C272.414 766.883 274.955 767.972 277.457 769.508C280.824 771.483 284.37 772.669 288.062 773.875C289.248 774.264 289.248 774.264 290.457 774.66C316.853 783.129 345.608 789.297 373.344 790.566C374.204 790.607 375.064 790.648 375.95 790.69C385.341 791.104 394.726 791.197 404.125 791.187C405.019 791.188 405.912 791.188 406.833 791.188C419.535 791.176 432.195 790.871 444.875 790.125C445.909 790.066 445.909 790.066 446.964 790.006C454.512 789.564 461.878 788.798 469.319 787.459C473.094 786.812 476.876 786.473 480.687 786.125C489.009 785.282 496.929 783.537 505.024 781.485C508.042 780.744 511.082 780.126 514.125 779.5C534.788 775.082 555.377 769.107 574 759C575.823 758.079 577.653 757.176 579.486 756.274C608.09 742.18 634.038 726.402 659.413 707.17C663.085 704.463 665.413 703.483 670.059 703.629C672 704 672 704 674.5 706C676.435 709.87 677.036 712.832 676 717C671.448 726.953 659.712 733.072 651 739C650.415 739.401 649.829 739.803 649.226 740.216C645.849 742.527 642.432 744.771 639 747C637.975 747.681 636.95 748.361 635.895 749.062C611.534 765.055 585.667 777.964 558.36 788.117C556.92 788.656 555.483 789.206 554.054 789.776C547.648 792.305 541.022 794.038 534.375 795.812C533.727 795.986 533.079 796.159 532.411 796.337C518.771 799.964 505.034 802.838 491.155 805.411C488.559 805.896 485.971 806.405 483.383 806.93C433.52 816.662 376.617 815.679 327 805C326.318 804.855 325.636 804.71 324.934 804.56C320.244 803.533 315.622 802.292 311 801C310.058 800.743 309.115 800.485 308.145 800.22C290.259 795.302 273.144 789.056 256 782C253.833 781.118 251.667 780.237 249.5 779.355C243.642 776.959 237.815 774.498 232 772C231.258 771.686 230.517 771.371 229.753 771.047C207.512 761.53 186.639 747.845 167.125 733.687C166.365 733.136 165.604 732.585 164.821 732.017C157.736 726.852 150.78 721.559 144 716C143.202 715.377 142.404 714.755 141.582 714.113C138.824 711.752 137.261 710.154 136.449 706.562C136.151 700.829 137.248 697.304 141 693C144.032 691.484 145.755 692.11 149 693Z" fill="#091825"/>
<path d="M389 273C394.348 277.574 396.73 283.631 397.281 290.5C397.435 294.86 397.418 299.22 397.398 303.582C397.4 305.203 397.403 306.825 397.407 308.446C397.412 311.836 397.405 315.226 397.391 318.615C397.374 322.932 397.384 327.249 397.402 331.566C397.413 334.913 397.409 338.259 397.401 341.606C397.399 343.197 397.402 344.787 397.409 346.377C397.451 358.424 396.397 368.552 390 379C389.24 381.27 389.24 381.27 389 383C390 384 390 384 391.5 385.5C392.5 387 392.66 385.8 393 387.5C393.66 387.5 393.82 389.5 394.5 389.5C392.996 393.329 392.443 392.781 389 395C385.5 396 385.5 396 382 396C380.824 395.01 380.824 395.01 379.625 394C377.3 391.823 377.3 391.823 375.113 391.953C373.602 392.159 372.093 392.383 370.586 392.621C361.863 393.899 353.672 393.686 346 389C339.616 383.881 337.411 377.874 336 370C335.628 364.954 335.667 359.93 335.75 354.875C335.765 353.411 335.779 351.946 335.792 350.482C335.825 347.339 335.869 344.196 335.922 341.053C335.995 336.644 336.034 332.235 336.069 327.825C336.102 324.138 336.154 320.452 336.212 316.766C336.237 314.982 336.257 313.197 336.27 311.413C336.375 299.076 336.804 286.384 346 277C357.813 266.905 375.872 263.7 389 273Z" fill="white"/>
<path d="M766.688 216.75C767.643 216.729 768.599 216.709 769.584 216.687C777.104 216.646 783.806 217.445 789.813 222.25C797.616 232.06 798.155 241.982 798.25 254.187C798.264 255.434 798.264 255.434 798.278 256.706C798.223 267.536 795.724 278.143 788.125 286.25C785.713 288.792 785.713 288.792 786 291.812C787.897 297.858 789.947 303.852 792 309.846C792.999 312.767 793.991 315.69 794.981 318.613C795.498 320.133 796.018 321.651 796.541 323.169C797.301 325.378 798.05 327.591 798.797 329.805C799.033 330.483 799.27 331.161 799.513 331.86C801.114 336.658 801.114 336.658 800 340C790.1 340.99 790.1 340.99 780 342C777.321 334.956 775.028 327.884 772.938 320.651C770.744 313.063 768.382 305.531 766 298C763.03 297.67 760.06 297.34 757 297C757 312.84 757 328.68 757 345C747.1 345.99 747.1 345.99 737 347C736.977 330.459 736.959 313.917 736.948 297.376C736.943 289.696 736.936 282.016 736.925 274.336C736.915 267.644 736.908 260.953 736.906 254.261C736.905 250.716 736.902 247.171 736.894 243.626C736.886 239.674 736.886 235.723 736.887 231.772C736.883 230.588 736.879 229.404 736.876 228.184C736.877 227.114 736.878 226.044 736.88 224.942C736.879 224.006 736.878 223.07 736.877 222.106C737 220 737 220 738 219C740.267 218.789 742.539 218.631 744.813 218.5C749.406 218.304 749.406 218.304 753.908 217.495C758.082 216.507 762.419 216.773 766.688 216.75Z" fill="white"/>
<path d="M599.094 245.184C604.894 249.522 607.054 255.739 608.582 262.621C610.602 278.95 610.479 295.449 600.367 309.098C598.344 311.871 598.344 311.871 597 315C597.658 317.969 597.658 317.969 599 321.25C601.925 329.255 603.948 337.419 605.943 345.698C606.907 349.68 607.858 353.583 609.176 357.465C610 360 610 360 610 364C603.652 366.308 597.705 366.198 591 366C588.25 359.009 586.073 351.888 583.937 344.687C583.586 343.528 583.235 342.368 582.873 341.174C580.784 334.149 579.174 327.235 578 320C573.05 320.495 573.05 320.495 568 321C568 336.84 568 352.68 568 369C563.885 370.029 559.96 370.336 555.75 370.562C554.632 370.627 554.632 370.627 553.492 370.693C551.662 370.799 549.831 370.9 548 371C547.977 358.576 547.959 346.151 547.948 333.727C547.943 327.954 547.936 322.182 547.925 316.41C547.828 266.675 547.828 266.675 549 244C550.433 243.855 551.867 243.709 553.3 243.564C554.568 243.435 554.568 243.435 555.863 243.304C557.623 243.126 559.384 242.949 561.146 242.774C562.288 242.656 562.288 242.656 563.453 242.535C564.228 242.457 565.003 242.378 565.802 242.297C588.549 239.223 588.549 239.223 599.094 245.184Z" fill="white"/>
<path d="M302 278C301.67 318.92 301.34 359.84 301 402C292.585 402.99 292.585 402.99 284 404C283.49 402.543 282.979 401.087 282.453 399.586C276.773 383.523 270.593 367.708 264.186 351.925C263.116 349.286 262.057 346.643 261 344C260.67 364.79 260.34 385.58 260 407C251.09 407.99 251.09 407.99 242 409C240.32 407.32 240.873 405.253 240.871 402.948C240.867 401.855 240.864 400.762 240.861 399.636C240.863 398.428 240.865 397.221 240.867 395.977C240.866 394.716 240.865 393.455 240.863 392.156C240.86 388.699 240.865 385.242 240.871 381.785C240.875 379.633 240.877 377.481 240.878 375.329C240.896 345.213 241.368 315.109 242 285C246.187 284.202 250.115 283.89 254.375 283.938C255.964 283.951 255.964 283.951 257.586 283.965C258.781 283.982 258.781 283.982 260 284C260.205 284.569 260.409 285.138 260.62 285.724C267.729 305.489 274.863 325.245 282 345C282.038 343.326 282.038 343.326 282.076 341.617C282.541 321.07 283.01 300.53 284 280C286.931 278.535 289.742 278.648 293 278.438C294.887 278.312 294.887 278.312 296.813 278.184C298.54 278.084 300.27 278 302 278Z" fill="white"/>
<path d="M519 248C523.146 264.135 525.831 280.549 528.375 297C528.978 300.86 529.584 304.719 530.191 308.578C530.417 310.018 530.417 310.018 530.648 311.486C531.637 317.762 532.66 324.032 533.715 330.297C533.851 331.105 533.987 331.914 534.127 332.747C534.762 336.508 535.401 340.268 536.046 344.027C537.629 353.326 538.903 362.633 540 372C533.253 373.234 526.87 374.264 520 374C518.88 371.76 518.713 370.134 518.465 367.648C518.386 366.882 518.307 366.115 518.226 365.326C518.131 364.352 518.036 363.378 517.938 362.375C517.628 359.281 517.319 356.187 517 353C506.605 353.99 506.605 353.99 496 355C495.01 362.26 494.02 369.52 493 377C482.875 379.25 482.875 379.25 478.438 379.125C477.591 379.107 476.744 379.089 475.871 379.07C475.254 379.047 474.636 379.024 474 379C473.887 373.681 474.212 368.884 475.207 363.633C475.333 362.954 475.459 362.276 475.589 361.577C475.99 359.425 476.401 357.275 476.813 355.125C477.343 352.316 477.869 349.506 478.395 346.695C478.528 345.984 478.662 345.272 478.8 344.539C479.747 339.462 480.62 334.374 481.457 329.277C483.15 318.977 485.003 308.707 486.875 298.437C487.049 297.481 487.223 296.524 487.403 295.538C489.515 283.95 491.648 272.367 493.938 260.812C494.137 259.799 494.335 258.786 494.541 257.742C494.722 256.844 494.903 255.945 495.09 255.02C495.243 254.257 495.396 253.495 495.554 252.71C496 251 496 251 497 250C499.752 249.596 502.487 249.246 505.25 248.937C506.014 248.847 506.779 248.756 507.566 248.662C511.398 248.222 515.135 247.884 519 248Z" fill="white"/>
<path d="M132 300C132.167 300.96 132.335 301.919 132.507 302.908C133.97 311.27 135.473 319.625 137.016 327.973C137.194 328.938 137.372 329.903 137.556 330.897C137.928 332.912 138.301 334.928 138.674 336.943C142.147 355.74 145.541 374.548 148.792 393.385C149.058 394.922 149.324 396.459 149.59 397.996C149.713 398.713 149.837 399.429 149.964 400.168C150.767 404.782 151.655 409.369 152.67 413.942C153.051 416.319 153.054 418.596 153 421C150.605 421.337 148.209 421.67 145.812 422C145.139 422.095 144.465 422.191 143.771 422.289C140.153 422.783 136.652 423.113 133 423C132.497 420.23 131.997 417.459 131.5 414.688C131.357 413.902 131.214 413.116 131.066 412.307C130.863 411.171 130.863 411.171 130.656 410.012C130.531 409.315 130.405 408.619 130.275 407.901C130 406 130 406 130 403C128.903 403.217 127.806 403.433 126.676 403.656C125.221 403.938 123.767 404.219 122.312 404.5C121.591 404.643 120.87 404.786 120.127 404.934C119.421 405.069 118.715 405.204 117.988 405.344C117.022 405.532 117.022 405.532 116.036 405.725C113.673 406.044 111.382 406.043 109 406C108.914 406.601 108.829 407.201 108.74 407.82C108.352 410.527 107.957 413.232 107.562 415.938C107.428 416.883 107.293 417.829 107.154 418.803C107.022 419.702 106.89 420.601 106.754 421.527C106.633 422.36 106.513 423.193 106.389 424.051C106 426 106 426 105 427C102.946 427.403 100.881 427.747 98.8125 428.062C97.1206 428.327 97.1206 428.327 95.3945 428.598C92.2224 428.974 89.1901 429.073 86 429C86.7265 421.847 87.7614 414.779 88.9375 407.688C89.1464 406.428 89.3553 405.168 89.5706 403.87C91.9907 389.508 94.8155 375.221 97.5963 360.926C101.341 341.661 104.82 322.366 108 303C116.087 300.19 123.527 299.872 132 300Z" fill="white"/>
<path d="M463.285 254.973C464.616 254.979 464.616 254.979 465.973 254.985C466.642 254.99 467.311 254.995 468 255C468.07 267.701 468.123 280.401 468.155 293.102C468.171 299.001 468.192 304.899 468.226 310.797C468.259 316.497 468.277 322.196 468.285 327.895C468.29 330.063 468.301 332.23 468.317 334.397C468.54 365.299 468.54 365.299 459.352 375.902C451.072 383.895 441.577 385.675 430.431 385.611C425.117 385.381 421.473 384.595 417.539 380.777C417.031 380.191 416.523 379.604 416 379C415.43 378.424 414.86 377.848 414.273 377.254C408.356 370.957 407.704 364.769 407.757 356.418C407.755 355.471 407.753 354.524 407.751 353.548C407.748 350.428 407.758 347.308 407.77 344.187C407.771 342.013 407.771 339.839 407.771 337.665C407.772 333.112 407.781 328.559 407.794 324.007C407.811 318.176 407.815 312.345 407.814 306.515C407.815 302.026 407.82 297.538 407.827 293.049C407.83 290.9 407.832 288.75 407.833 286.6C407.835 283.594 407.844 280.588 407.855 277.582C407.854 276.697 407.854 275.811 407.853 274.899C407.876 270.487 408.112 266.344 409 262C411.041 261.661 413.083 261.329 415.125 261C416.262 260.814 417.399 260.629 418.57 260.437C421.766 260.03 424.785 259.968 428 260C427.993 261.866 427.993 261.866 427.987 263.769C427.946 275.482 427.916 287.195 427.896 298.908C427.886 304.93 427.872 310.952 427.849 316.974C427.827 322.783 427.815 328.593 427.81 334.402C427.807 336.621 427.799 338.839 427.789 341.057C427.774 344.16 427.772 347.263 427.773 350.366C427.762 351.747 427.762 351.747 427.751 353.156C427.754 354.003 427.757 354.85 427.759 355.723C427.757 356.823 427.757 356.823 427.754 357.946C428.042 360.353 428.729 361.944 430 364C433.46 365.73 437.217 365.484 441 365C444.499 362.886 445.706 361.883 447 358C447.111 356.198 447.166 354.392 447.189 352.587C447.206 351.47 447.223 350.354 447.24 349.204C447.254 347.987 447.267 346.77 447.281 345.516C447.309 343.573 447.337 341.631 447.364 339.688C447.393 337.624 447.42 335.56 447.446 333.496C447.526 327.131 447.623 320.767 447.718 314.403C447.75 312.284 447.781 310.164 447.813 308.045C447.976 297.088 448.172 286.133 448.44 275.178C448.48 273.521 448.518 271.863 448.554 270.206C448.604 267.954 448.66 265.701 448.719 263.449C448.749 262.215 448.779 260.981 448.811 259.71C449 257 449 257 450 256C454.475 255.268 458.751 254.946 463.285 254.973Z" fill="white"/>
<path d="M768 386C767.762 390.145 767.513 394.289 767.255 398.433C767.169 399.84 767.086 401.247 767.005 402.655C766.889 404.688 766.762 406.721 766.633 408.754C766.559 409.974 766.486 411.194 766.411 412.451C765.977 416.199 765.131 419.412 764 423C763.269 423.095 762.539 423.19 761.786 423.288C747.739 425.121 733.708 427.019 719.699 429.126C704.483 431.413 689.241 433.391 673.967 435.254C664.602 436.4 655.253 437.58 645.954 439.188C640.605 440.071 635.4 440.119 630 440C630.142 438.25 630.289 436.5 630.438 434.75C630.519 433.775 630.6 432.801 630.684 431.797C631 429 631 429 631.5 427.137C632.063 424.732 632.211 422.483 632.316 420.016C632.358 419.081 632.4 418.146 632.443 417.184C632.502 415.731 632.502 415.731 632.562 414.25C632.606 413.266 632.649 412.283 632.693 411.27C632.799 408.846 632.901 406.423 633 404C640.238 402.208 647.463 401.237 654.864 400.369C665.522 399.115 676.15 397.744 686.75 396.062C707.695 392.748 728.718 389.894 749.75 387.187C751.158 387.002 751.158 387.002 752.594 386.812C757.776 386.161 762.777 385.885 768 386Z" fill="white"/>
<path d="M728 221C728.027 223.604 728.047 226.208 728.062 228.813C728.071 229.55 728.079 230.288 728.088 231.049C728.103 234.299 728.035 236.894 727 240C723.983 240.832 721.072 241.436 718 242C716.175 242.391 716.175 242.391 714.312 242.789C708.037 244.123 702.492 245 696 245C696 256.22 696 267.44 696 279C704.58 278.01 713.16 277.02 722 276C722 289.5 722 289.5 721 295C715.747 297.049 710.685 297.614 705.125 298.125C702.114 298.414 699.102 298.702 696 299C696 309.89 696 320.78 696 332C705.035 331.015 705.035 331.015 714.069 330.025C715.196 329.904 716.323 329.782 717.484 329.656C719.213 329.468 719.213 329.468 720.976 329.275C724 329 724 329 728 329C728 335.27 728 341.54 728 348C722.22 348.839 716.44 349.676 710.66 350.509C708.698 350.792 706.736 351.076 704.774 351.361C701.937 351.773 699.099 352.182 696.262 352.59C695.4 352.716 694.538 352.842 693.65 352.972C687.448 353.858 681.243 354.484 675 355C674.9 329.121 675.177 303.247 675.464 277.369C675.525 271.783 675.585 266.197 675.645 260.611C675.761 249.741 675.88 238.87 676 228C682.193 226.711 688.374 225.577 694.641 224.711C695.411 224.603 696.182 224.495 696.976 224.383C698.586 224.158 700.196 223.935 701.806 223.713C704.259 223.374 706.712 223.027 709.164 222.68C710.74 222.46 712.315 222.242 713.891 222.023C714.616 221.92 715.341 221.817 716.088 221.711C720.09 221.166 723.962 220.896 728 221Z" fill="white"/>
<path d="M198 464C198 474.89 198 485.78 198 497C185.413 499.189 172.83 500.993 160.153 502.562C154.976 503.204 149.8 503.857 144.625 504.512C143.613 504.64 142.601 504.768 141.558 504.899C133.401 505.936 125.261 507.061 117.125 508.25C90.363 512.153 90.363 512.153 82 512C80.1663 507.8 79.0562 503.506 78 499.062C77.0876 495.246 76.1811 491.514 74.875 487.809C74.0014 485.005 73.9316 482.908 74 480C83.3319 478.615 92.6654 477.241 102 475.875C102.696 475.773 103.392 475.671 104.11 475.566C125.893 472.381 147.691 469.416 169.547 466.765C170.488 466.651 171.429 466.537 172.398 466.419C174.127 466.211 175.856 466.003 177.585 465.798C180.767 465.417 183.905 465.018 187.057 464.432C190 464 190 464 198 464Z" fill="white"/>
<path d="M568 691C563.538 696.232 558.064 698.905 552 702C551.069 702.496 550.139 702.993 549.18 703.504C533.921 711.466 517.462 716.211 501 721C500.208 721.236 499.416 721.472 498.6 721.715C488.057 724.838 477.399 726.934 466.562 728.75C465.306 728.961 464.05 729.172 462.756 729.389C447.56 731.841 432.613 732.275 417.25 732.313C416.191 732.315 415.132 732.318 414.041 732.321C387.88 732.338 363.08 729.824 338 722C338 721.34 338 720.68 338 720C338.645 719.929 339.291 719.859 339.956 719.786C346.738 719.042 353.52 718.295 360.302 717.546C362.826 717.268 365.349 716.991 367.873 716.714C385.619 714.815 385.619 714.815 403.295 712.364C406.322 711.957 409.325 711.774 412.375 711.625C420.031 711.151 427.5 709.817 435.052 708.514C442.596 707.217 450.119 706.145 457.724 705.265C462.61 704.696 467.492 704.098 472.375 703.5C473.374 703.381 474.373 703.263 475.402 703.14C480.867 702.471 486.221 701.598 491.609 700.473C495.508 699.702 499.435 699.198 503.375 698.688C505.281 698.434 507.188 698.18 509.094 697.926C510.162 697.784 511.231 697.641 512.332 697.495C520.647 696.373 528.956 695.202 537.265 694.041C539.549 693.722 541.833 693.404 544.117 693.086C545.132 692.944 545.132 692.944 546.167 692.799C553.497 691.779 560.591 690.868 568 691Z" fill="white"/>
<path d="M668 229C668 235.93 668 242.86 668 250C661.226 251.355 656.591 252.244 650 252C650.002 252.588 650.004 253.177 650.007 253.783C650.133 288.87 649.849 323.923 649 359C647.356 359.344 645.71 359.675 644.062 360C643.146 360.186 642.229 360.371 641.285 360.562C637.169 361.111 633.145 361.083 629 361C628.842 325.319 629.277 289.673 630 254C629.103 254.244 629.103 254.244 628.188 254.494C623.595 255.556 618.679 255.051 614 255C614 248.73 614 242.46 614 236C623.926 234.239 633.882 232.946 643.885 231.713C646.654 231.371 649.423 231.026 652.191 230.68C653.953 230.461 655.715 230.242 657.477 230.023C658.717 229.869 658.717 229.869 659.983 229.711C665.768 229 665.768 229 668 229Z" fill="white"/>
<path d="M202 291C202.029 294.312 202.047 297.625 202.062 300.937C202.071 301.883 202.079 302.829 202.088 303.803C202.091 304.702 202.094 305.601 202.098 306.527C202.103 307.36 202.108 308.193 202.114 309.051C202 311 202 311 201 312C195.39 312.66 189.78 313.32 184 314C184 348.32 184 382.64 184 418C170.5 420.25 170.5 420.25 164 420C163.866 385.651 164.134 351.338 165 317C163.577 317.247 163.577 317.247 162.125 317.5C157.448 318.067 152.711 318 148 318C148 311.4 148 304.8 148 298C153.059 296.735 157.25 295.727 162.301 295.219C163.444 295.099 164.586 294.979 165.764 294.855C166.935 294.738 168.106 294.621 169.312 294.5C175.875 293.836 182.378 293.176 188.855 291.906C193.336 291.036 197.444 290.828 202 291Z" fill="white"/>
<path d="M53 310C53 343.99 53 377.98 53 413C54.485 412.505 54.485 412.505 56 412C57.7707 411.785 59.5466 411.612 61.3242 411.465C62.3522 411.378 63.3803 411.291 64.4395 411.201C65.5113 411.114 66.5832 411.027 67.6875 410.938C69.3127 410.801 69.3127 410.801 70.9707 410.662C73.6469 410.438 76.3234 410.219 79 410C79 416.6 79 423.2 79 430C76.1495 431.425 73.4181 431.506 70.25 431.875C65.2565 432.465 60.2718 433.092 55.293 433.797C54.3226 433.934 53.3523 434.07 52.3525 434.211C50.4438 434.482 48.5356 434.757 46.6279 435.035C45.7388 435.16 44.8497 435.285 43.9336 435.414C43.1504 435.527 42.3672 435.64 41.5603 435.756C38.3665 436.06 35.2066 436.015 32 436C31.9271 408.767 32.1078 381.544 32.4636 354.314C32.5257 349.512 32.585 344.709 32.6445 339.906C32.7603 330.604 32.8791 321.302 33 312C35.0197 311.66 37.0408 311.328 39.0625 311C40.1879 310.814 41.3132 310.629 42.4727 310.438C46 310 46 310 53 310Z" fill="white"/>
<path d="M707 55C716.192 64.1097 724.362 73.5524 732 84C737.954 91.8952 744.078 99.6308 750.358 107.269C753.084 110.594 755.769 113.947 758.391 117.355C758.891 118.005 759.392 118.655 759.907 119.325C761 121 761 121 761 123C761.66 123 762.32 123 763 123C763 123.66 763 124.32 763 125C756.73 125 750.46 125 744 125C743.278 123.536 742.556 122.071 741.812 120.562C739.348 115.626 736.723 110.798 734 106C733.196 106.021 732.391 106.041 731.562 106.062C729 106 729 106 728 105C715.007 105.553 704.765 115.374 695 123C694.102 123.694 693.203 124.387 692.277 125.102C685.951 130.065 679.912 135.362 673.855 140.648C671.415 142.777 668.962 144.888 666.488 146.977C655.578 156.197 645.054 165.85 635 176C633.89 177.111 632.779 178.222 631.668 179.332C631.098 179.902 630.527 180.473 629.939 181.061C627.293 183.707 624.646 186.354 622 189C622.595 191.022 623.267 193.023 624 195C626.032 195.969 626.032 195.969 628 196C628 196.66 628 197.32 628 198C617.442 198.185 617.442 198.185 613 197C614.247 192.428 616.767 190.046 620.082 186.875C622.584 184.429 624.84 181.808 627.125 179.16C630.69 175.053 634.356 171.037 638 167C640.25 164.501 642.499 162.001 644.746 159.5C646.253 157.828 647.766 156.161 649.285 154.5C653.643 149.716 657.783 144.837 661.777 139.746C663.422 137.714 665.087 135.743 666.816 133.785C674.009 125.638 680.291 117.25 686 108C686.366 107.407 686.732 106.814 687.109 106.203C694.872 93.4658 700.225 80.4118 704 66C704.582 63.8746 705.165 61.7496 705.75 59.625C706.168 58.0836 706.585 56.542 707 55Z" fill="white"/>
<path d="M312.055 25.4844C314.457 27.6322 315.895 29.2604 316.355 32.4961C316 35 316 35 314.566 36.6602C313.574 37.3543 313.574 37.3543 312.562 38.0625C311.924 38.5279 311.286 38.9932 310.629 39.4727C303.175 43.8034 296.056 45.8588 287.562 47.1875C286.104 47.434 286.104 47.434 284.615 47.6856C262.369 51.3561 235.846 52.134 215.734 40.2461C212.402 37.8516 211.134 36.8018 210.438 32.625C211 29 211 29 213.375 26.3125C220.858 20.9782 229.538 19.2209 238.5 18.25C239.577 18.1286 240.653 18.0072 241.762 17.8821C294.085 12.5026 294.085 12.5026 312.055 25.4844Z" fill="white"/>
<path d="M535.888 16.6638C538.261 16.6876 540.634 16.6843 543.008 16.6777C550.877 16.6919 558.342 17.0403 566 19C567.494 19.3145 568.989 19.6245 570.484 19.9297C571.907 20.2432 573.329 20.5582 574.75 20.875C575.465 21.0232 576.181 21.1715 576.918 21.3242C581.644 22.3909 585.172 23.8757 589 27C590.158 30.7469 590.385 32.9231 589.063 36.625C581.719 45.0812 570.673 47.1594 560 48C556.998 48.1282 554.004 48.143 551 48.125C550.157 48.1216 549.314 48.1182 548.445 48.1147C541.294 48.059 534.147 47.8725 527 47.625C525.987 47.5942 524.974 47.5634 523.93 47.5317C514.548 47.1628 505.124 46.356 496.438 42.5625C495.467 42.1513 494.496 41.7401 493.496 41.3164C491.117 40.0619 489.608 39.1408 488 37C487.292 31.4261 487.292 31.4261 488 29C491.299 25.8029 494.675 24.0662 498.938 22.4375C499.937 22.0443 500.936 21.6512 501.965 21.2461C513.308 17.5204 524.055 16.5371 535.888 16.6638Z" fill="white"/>
<path d="M450.688 26.25C453.032 29.0379 453.417 29.6908 453.625 33.125C453 37 453 37 451.375 38.5859C431.232 50.579 404.695 48.7224 382.375 47.1875C381.297 47.1176 380.218 47.0478 379.107 46.9758C370.879 46.3342 362.117 45.3832 355.5 40C354.871 39.505 354.242 39.01 353.594 38.5C351.312 36.3529 350.088 34.6322 349.652 31.5078C350 29 350 29 351.504 27.3047C374.534 11.3102 426.951 9.83837 450.688 26.25Z" fill="white"/>
<path d="M230 287C230.106 312.012 229.816 337.019 229.536 362.03C229.475 367.569 229.415 373.108 229.355 378.646C229.239 389.431 229.12 400.216 229 411C226.982 411.51 224.96 412.007 222.938 412.5C221.812 412.778 220.687 413.057 219.527 413.344C215.935 414.012 212.645 414.111 209 414C208.912 387.824 209.154 361.655 209.464 335.481C209.525 330.217 209.585 324.952 209.645 319.687C209.761 309.458 209.88 299.229 210 289C212.208 288.661 214.416 288.329 216.625 288C217.855 287.814 219.085 287.629 220.352 287.437C223.617 287.046 226.717 286.919 230 287Z" fill="white"/>
<path d="M598 395C602.878 398.903 604.756 403.823 605.434 409.867C605.457 411.203 605.458 412.539 605.438 413.875C605.429 414.576 605.421 415.277 605.412 416C605.166 423.59 603.348 429.017 597.938 434.375C587.705 442.092 572.787 440.928 561 442C561.33 426.49 561.66 410.98 562 395C591.077 390.154 591.077 390.154 598 395Z" fill="white"/>
<path d="M372 287C374.7 288.8 376.542 290.084 378 293C378.107 295.148 378.149 297.299 378.161 299.45C378.166 300.112 378.171 300.774 378.176 301.456C378.191 303.652 378.198 305.847 378.203 308.043C378.209 309.57 378.215 311.098 378.22 312.625C378.231 315.832 378.237 319.039 378.24 322.246C378.246 326.344 378.27 330.442 378.298 334.539C378.317 337.697 378.322 340.855 378.324 344.013C378.327 345.523 378.335 347.033 378.348 348.543C378.365 350.663 378.363 352.783 378.356 354.903C378.36 356.107 378.364 357.311 378.367 358.552C377.842 363.479 376.19 367.26 373.375 371.375C369.803 373.819 366.294 374.337 362 374C358.463 371.937 357.296 370.887 356 367C355.895 364.814 355.851 362.625 355.839 360.437C355.834 359.774 355.829 359.112 355.824 358.43C355.809 356.24 355.802 354.05 355.797 351.859C355.791 350.333 355.785 348.807 355.78 347.282C355.769 344.08 355.763 340.879 355.76 337.678C355.754 333.588 355.73 329.499 355.702 325.409C355.683 322.255 355.678 319.102 355.676 315.948C355.673 314.441 355.665 312.934 355.652 311.427C355.635 309.311 355.637 307.197 355.644 305.081C355.64 303.88 355.636 302.679 355.633 301.441C356.113 296.945 357.26 292.681 360.613 289.441C364.527 287.417 367.498 286.217 372 287Z" fill="#0B1A26"/>
<path d="M426.625 415.938C429.983 418.854 429.983 418.854 430.238 421.074C430.41 427.118 429.922 430.343 426 435C427.207 436.423 427.207 436.423 428.438 437.875C431.919 441.982 432.367 444.501 432 450C430.612 454.163 429.42 455.704 425.812 458.25C419.488 461.413 412.873 462.222 405.938 463.125C405.265 463.213 404.592 463.301 403.899 463.391C399.513 463.922 395.466 464 391 464C391 448.49 391 432.98 391 417C421.473 412.647 421.473 412.647 426.625 415.938Z" fill="white"/>
<path d="M264 438C266.384 440.384 266.296 440.994 266.313 444.25C266.237 448.477 265.24 451.36 263 455C262.34 455 261.68 455 261 455C261.433 455.401 261.866 455.802 262.313 456.215C265.526 459.495 267.443 461.859 267.563 466.562C267.235 470.659 266.497 473.645 264 477C258.766 480.45 253.316 481.824 247.188 482.687C246.406 482.807 245.624 482.927 244.819 483.05C232.014 484.958 232.014 484.958 227 485C225.306 483.306 225.868 481.193 225.861 478.931C225.866 478.191 225.87 477.45 225.875 476.687C225.878 475.534 225.878 475.534 225.881 474.358C225.965 462.233 226.513 450.114 227 438C254.664 431.612 254.664 431.612 264 438Z" fill="white"/>
<path d="M534 398C537.63 398 541.26 398 545 398C545.025 404.372 545.043 410.744 545.055 417.116C545.06 419.285 545.067 421.454 545.075 423.623C545.088 426.736 545.093 429.848 545.098 432.961C545.103 433.935 545.108 434.909 545.113 435.912C545.113 436.813 545.113 437.714 545.114 438.642C545.116 439.437 545.118 440.232 545.12 441.051C545 443 545 443 544 445C540.925 446.345 538.294 446.611 535 446C531.415 443.157 528.813 439.586 526 436C524.221 433.948 522.395 431.942 520.562 429.938C519.739 429.018 518.915 428.099 518.066 427.152C516.187 424.954 516.187 424.954 514 424C514 432.58 514 441.16 514 450C510.04 450 506.08 450 502 450C502 434.16 502 418.32 502 402C513 402 513 402 516.418 404.527C517.373 405.637 518.297 406.775 519.188 407.938C519.643 408.482 520.099 409.027 520.568 409.588C522.064 411.377 523.531 413.189 525 415C527.64 417.97 530.28 420.94 533 424C533.33 415.42 533.66 406.84 534 398Z" fill="white"/>
<path d="M346.687 425.875C350 428 350 428 352 430C351.79 432.728 351.315 434.519 349.812 436.812C347.088 438.598 345.194 438.383 342 438C341.237 437.484 340.474 436.969 339.687 436.437C335.704 434.307 332.269 434.708 328 436C325.294 438.198 323.552 439.896 322 443C321.484 448.182 321.572 452.738 323.25 457.687C327.114 460.937 330.21 460.554 335.125 460.406C337.913 460.012 339.686 459.586 342 458C342.33 457.01 342.66 456.02 343 455C339.37 455 335.74 455 332 455C331.902 448.066 331.902 448.066 332 446C334.41 443.59 340.026 444.012 343.289 443.598C347.014 442.998 350.4 442.106 354 441C354.205 444.187 354.328 447.371 354.437 450.562C354.496 451.458 354.555 452.353 354.615 453.275C354.713 457.093 354.754 459.882 352.575 463.113C349.523 466.25 346.204 468.849 342.312 470.875C341.587 471.264 340.861 471.654 340.113 472.055C334.31 474.651 328.529 474.768 322.5 472.937C316.827 470.153 311.506 466.046 309 460.125C306.543 451.776 307.878 444.584 312 437C319.61 425.454 333.565 419.564 346.687 425.875Z" fill="white"/>
<path d="M472 408C473.541 410.669 474.792 413.183 476 416C476.35 416.802 476.701 417.605 477.062 418.432C478.182 421.031 479.28 423.639 480.375 426.25C483.336 433.261 486.413 440.106 490.004 446.82C491 449 491 449 491 452C486.947 452.982 483.161 453.082 479 453C477.539 450.353 477 449.106 477 446C475.987 446.144 474.974 446.289 473.93 446.438C472.578 446.625 471.227 446.813 469.875 447C469.21 447.095 468.545 447.191 467.859 447.289C463.874 447.836 460.021 448.1 456 448C455.732 449.093 455.464 450.186 455.188 451.313C453.676 456.005 453.676 456.005 451 458C448.738 458.293 448.738 458.293 446.312 458.188C445.1 458.147 445.1 458.147 443.863 458.105C443.248 458.071 442.634 458.036 442 458C442.473 450.775 445.411 444.553 448.188 437.938C448.686 436.736 449.184 435.534 449.697 434.295C451.124 430.86 452.561 427.43 454 424C454.665 422.396 455.329 420.792 455.992 419.188C459.71 410.29 459.71 410.29 462 408C465.643 407.129 468.467 406.656 472 408Z" fill="white"/>
<path d="M584.938 262.187C587.892 264.784 589.735 267.137 590.304 271.135C590.441 273.68 590.458 276.202 590.438 278.75C590.467 280.034 590.467 280.034 590.498 281.344C590.493 287.581 589.245 292.626 586 298C580.795 302.361 574.597 303 568 303C568 289.47 568 275.94 568 262C573.701 260.575 579.396 259.947 584.938 262.187Z" fill="#0E1C26"/>
<path d="M772 237C775.873 239.43 776.699 241.211 778.312 245.437C780.07 254.345 780.226 263.849 776 272C772.992 275.652 770.519 276.728 765.938 277.75C764.895 277.992 763.852 278.235 762.777 278.484C760 279 760 279 757 279C757 265.47 757 251.94 757 238C761.441 235.78 767.178 236.486 772 237Z" fill="#0B1A26"/>
<path d="M299 60C299 62.97 299 65.94 299 69C288.435 73.9451 278.619 74.3196 267.172 74.2607C264.704 74.2501 262.236 74.2607 259.768 74.2734C251.069 74.2809 242.49 74.1635 234 72C232.101 70.1011 232.876 67.4275 232.867 64.9102C233 63 233 63 234 61C234.869 61.0033 234.869 61.0033 235.755 61.0067C241.823 61.029 247.891 61.044 253.958 61.0549C256.218 61.0599 258.478 61.0667 260.738 61.0754C264 61.0877 267.262 61.0933 270.523 61.0977C271.522 61.1028 272.52 61.108 273.549 61.1133C279.024 61.1137 284.373 60.8602 289.813 60.2214C292.892 59.9097 295.908 59.9328 299 60Z" fill="white"/>
<path d="M368 60C375.491 60.9041 375.491 60.9041 378.703 61.5093C384.227 62.3314 389.782 62.1859 395.355 62.1853C397.466 62.1875 399.577 62.2056 401.688 62.2246C409.557 62.2561 417.051 61.7698 424.834 60.4309C428.257 59.9651 431.55 59.9313 435 60C436.158 63.4733 436.069 66.3607 436 70C418.143 75.4837 398.296 75.0886 379.875 73.125C379.135 73.0467 378.395 72.9684 377.633 72.8877C373.86 72.425 371.466 71.7331 368 70C368 66.7 368 63.4 368 60Z" fill="white"/>
<path d="M504 59C517.302 60.8254 517.302 60.8254 523.188 62.125C535.608 64.4081 548.229 63.4076 560.484 60.7539C563.979 60.0046 567.458 59.4677 571 59C572.322 61.6446 572.097 63.6776 572.062 66.625C572.053 67.6279 572.044 68.6308 572.035 69.6641C572.024 70.4349 572.012 71.2058 572 72C566.659 72.7464 561.444 73.1585 556.047 73.168C555.312 73.1721 554.578 73.1763 553.821 73.1805C551.464 73.1901 549.107 73.1902 546.75 73.1875C545.949 73.1876 545.147 73.1876 544.321 73.1877C534.853 73.1775 525.43 73.0766 516 72.125C515.22 72.0466 514.44 71.9682 513.636 71.8875C509.858 71.4371 507.47 70.7348 504 69C504 65.7 504 62.4 504 59Z" fill="white"/>
<path d="M290.75 428.875C291.549 428.893 292.348 428.911 293.172 428.93C293.775 428.953 294.378 428.976 295 429C295.025 435.675 295.043 442.35 295.055 449.026C295.06 451.298 295.067 453.571 295.075 455.844C295.088 459.103 295.093 462.362 295.098 465.621C295.103 466.644 295.108 467.667 295.113 468.721C295.113 469.662 295.113 470.603 295.114 471.572C295.116 472.405 295.118 473.238 295.12 474.095C295 476 295 476 294 477C288.06 477.495 288.06 477.495 282 478C282 462.49 282 446.98 282 431C285.744 429.128 286.84 428.76 290.75 428.875Z" fill="white"/>
<path d="M506 281C506.66 281 507.32 281 508 281C509.016 288.109 510.031 295.219 511.047 302.328C511.212 303.482 511.212 303.482 511.38 304.658C511.601 306.204 511.821 307.749 512.04 309.294C512.553 312.897 513.072 316.498 513.61 320.097C513.793 321.331 513.976 322.565 514.164 323.836C514.326 324.911 514.488 325.987 514.655 327.095C514.972 329.766 515.066 332.314 515 335C509.615 335.917 504.458 336.111 499 336C498.872 330.394 499.285 325.241 500.277 319.73C500.408 318.969 500.539 318.207 500.674 317.422C501.089 315.01 501.512 312.599 501.938 310.188C504.51 295.666 504.51 295.666 506 281Z" fill="#101B25"/>
<path d="M589.875 403.75C593.642 407.738 593.277 412.322 593.223 417.594C592.778 422.4 590.302 424.698 587 428C582.71 428.66 578.42 429.32 574 430C574 421.09 574 412.18 574 403C585.495 401.084 585.495 401.084 589.875 403.75Z" fill="#0A1824"/>
<path d="M119 334C119.33 334 119.66 334 120 334C120.265 335.65 120.265 335.65 120.535 337.333C121.191 341.418 121.849 345.503 122.509 349.588C122.793 351.356 123.078 353.123 123.361 354.89C123.769 357.432 124.179 359.974 124.59 362.516C124.716 363.304 124.842 364.093 124.972 364.906C125.629 369.018 125.629 369.018 126.535 373.08C127.124 375.511 127.095 377.752 127.062 380.25C127.053 381.142 127.044 382.034 127.035 382.953C127.024 383.629 127.012 384.304 127 385C121.919 385.847 117.152 386.09 112 386C111.797 379.094 112.331 372.632 113.531 365.836C113.687 364.918 113.842 364 114.002 363.054C114.494 360.16 114.997 357.267 115.5 354.375C115.838 352.397 116.175 350.419 116.512 348.441C117.333 343.626 118.163 338.813 119 334Z" fill="#0E1720"/>
<path d="M663 177C665.605 178.793 665.605 178.793 668.188 181.187C669.047 181.965 669.907 182.742 670.793 183.543C672.99 185.989 674.012 187.893 675 191C661.36 193.054 647.737 194.746 634 196C637.656 192.255 641.453 188.767 645.438 185.375C645.985 184.898 646.532 184.421 647.096 183.93C651.68 180.023 656.637 175.833 663 177Z" fill="white"/>
<path d="M773 62C775.438 63.625 775.438 63.625 777 66C777.561 69.366 777.67 71.6971 776.082 74.7852C773.997 77.6399 772.466 78.903 769 79.625C765.103 78.8132 763.529 78.1235 761 75C760.286 71.5323 760.293 68.4684 761 65C764.528 60.4025 767.627 60.4368 773 62Z" fill="#0C1925"/>
<path d="M790.063 90.3125C793 91 793 91 795.375 93.0625C797.386 96.6971 797.531 98.9029 797 103C796 104.938 796 104.938 794 106C789.53 106.577 786.816 106.544 783 104C782.006 100.769 781.352 98.37 782.848 95.207C784.966 92.3397 786.59 91.0921 790.063 90.3125Z" fill="#0C141F"/>
<path d="M745.625 36.375C748 37 748 37 750.375 39.1875C752 42 752 42 752 44.4375C750.753 47.6341 749.001 50.2238 747 53C743.191 52.7403 741.44 52.417 738.625 49.75C736.808 46.6756 736.132 45.4716 737 42C739.73 39.1431 741.742 37.2996 745.625 36.375Z" fill="#061824"/>
<path d="M243.16 462.902C245.092 462.92 245.092 462.92 247.062 462.938C248.353 462.947 249.643 462.956 250.973 462.965C251.972 462.976 252.971 462.988 254 463C254.188 466.375 254.188 466.375 254 470C250.596 472.27 248.835 472.365 244.812 472.625C243.726 472.7 242.639 472.775 241.52 472.852C240.272 472.925 240.272 472.925 239 473C238.973 471.521 238.954 470.042 238.938 468.562C238.926 467.739 238.914 466.915 238.902 466.066C239.064 462.656 239.668 463.01 243.16 462.902Z" fill="#121927"/>
<path d="M403 443C405.291 442.946 407.583 442.907 409.875 442.875C411.789 442.84 411.789 442.84 413.742 442.805C417 443 417 443 419 445C418.625 447.625 418.625 447.625 418 450C412.788 452.138 408.545 452.168 403 452C403 449.03 403 446.06 403 443Z" fill="#171C21"/>
<path d="M207 52C211.389 52.665 214.981 54.1876 219 56C219 59.3 219 62.6 219 66C214.475 65.4676 211.612 63.7288 208 61C206 58 206 58 206.375 54.8125C206.581 53.8844 206.788 52.9563 207 52Z" fill="white"/>
<path d="M411.625 424.937C412.814 424.946 414.002 424.956 415.227 424.965C416.142 424.976 417.057 424.988 418 425C418.145 427.391 418.145 427.391 418 430C413.133 433.683 408.978 434.113 403 434C403 431.36 403 428.72 403 426C405.884 424.558 408.417 424.906 411.625 424.937Z" fill="#0D1527"/>
<path d="M252 445C253 446 253 446 253.062 449.062C253.042 450.032 253.021 451.001 253 452C248.352 454.399 244.089 454.2 239 454C239 451.36 239 448.72 239 446C243.377 445.3 247.564 444.789 252 445Z" fill="#121A20"/>
<path d="M466 423C469.402 427.05 472 431.636 472 437C466.06 437.495 466.06 437.495 460 438C463 427.286 463 427.286 466 423Z" fill="#181D19"/>
<path d="M593 52C593.61 59.2031 593.61 59.2031 590.75 62.9375C588.212 64.841 586.982 65.3947 584 66C583.717 62.292 583.558 58.6991 584 55C587.137 51.9497 588.599 52 593 52Z" fill="white"/>
<path d="M456 53C456.229 56.0333 456.349 58.9732 456 62C454.188 64.0625 454.188 64.0625 452 65C451.01 65 450.02 65 449 65C448.67 61.7 448.34 58.4 448 55C452 53 452 53 456 53Z" fill="white"/>
<path d="M348 53C350.31 53.66 352.62 54.32 355 55C355 58.63 355 62.26 355 66C350 65 350 65 348 63C347.805 60.6172 347.805 60.6172 347.875 57.875C347.893 56.9649 347.911 56.0548 347.93 55.1172C347.953 54.4185 347.976 53.7198 348 53Z" fill="white"/>
<path d="M486 52C489.875 52.875 489.875 52.875 491 54C491.072 55.8529 491.084 57.7083 491.062 59.5625C491.053 60.5744 491.044 61.5863 491.035 62.6289C491.024 63.4114 491.012 64.1938 491 65C486.125 64.125 486.125 64.125 485 63C484.902 61.5235 484.87 60.0422 484.875 58.5625C484.872 57.7594 484.87 56.9563 484.867 56.1289C485 54 485 54 486 52Z" fill="white"/>
<path d="M319 52C319.46 55.1434 319.489 57.2445 317.734 59.957C316.224 61.7571 314.769 63.4514 313 65C312.34 65 311.68 65 311 65C311 61.7 311 58.4 311 55C316.75 52 316.75 52 319 52Z" fill="white"/>
</g>
<defs>
<clipPath id="clip0_15_6450">
<rect width="831" height="814" fill="white"/>
</clipPath>
</defs>
</svg>
