<svg width="1024" height="1024" viewBox="0 0 1024 1024" fill="none" xmlns="http://www.w3.org/2000/svg">
<g clip-path="url(#clip0_1_3)">
<path d="M557.945 117.087C561.933 121.358 564.646 125.42 566.527 130.947C566.747 130.378 566.966 129.81 567.192 129.224C571.337 119.131 576.242 114.219 586.29 109.624C599.594 104.083 613.91 103.336 628.136 103.535C630.856 103.572 633.575 103.576 636.295 103.576C649.416 103.627 662.206 104.288 674.715 108.634C675.852 109.024 675.852 109.024 677.013 109.422C686.296 112.751 695.029 117.467 700.527 125.947C701.937 130.177 701.878 134.455 702.045 138.878C702.205 142.115 702.509 144.892 703.563 147.966C704.756 151.653 704.658 155.003 704.527 158.822C704.396 166.02 704.825 173.035 705.527 180.197C707.436 200.683 707.632 221.571 704.527 241.947C704.393 242.844 704.259 243.741 704.121 244.666C702.377 256.047 700.18 267.196 697.015 278.273C696.481 280.154 695.999 282.049 695.527 283.947C695.857 284.277 696.187 284.607 696.527 284.947C703.311 277.536 703.311 277.536 709.965 270.009C713.774 265.629 717.704 261.361 721.637 257.091C723.531 255.034 725.417 252.969 727.293 250.896C731.799 245.928 736.361 241.082 741.152 236.384C745.515 232.064 749.454 227.567 753.274 222.763C755.671 219.768 758.158 216.862 760.652 213.947C770.731 201.815 779.259 187.231 783.527 171.947C783.877 170.97 784.226 169.992 784.586 168.986C787.783 159.142 787.817 150.066 787.38 139.783C787.346 138.699 787.312 137.614 787.277 136.497C787.231 135.525 787.185 134.552 787.137 133.549C787.648 130.141 788.815 129.003 791.527 126.947C795.783 126.786 798.601 127.678 801.902 130.259C805.835 133.93 808.854 138.263 812.008 142.599C814.68 146.216 817.581 149.614 820.527 153.009C821.556 154.197 822.585 155.384 823.613 156.572C824.108 157.143 824.603 157.714 825.112 158.302C830.817 164.932 836.209 171.797 841.51 178.751C845.539 184.013 849.722 189.147 853.917 194.279C856.708 197.697 859.47 201.129 862.152 204.634C864.505 207.697 866.96 210.653 869.471 213.586C871.842 216.357 874.19 219.147 876.527 221.947C876.981 222.488 877.434 223.03 877.901 223.588C879.192 225.149 880.454 226.735 881.715 228.322C882.819 229.695 882.819 229.695 883.945 231.095C885.927 234.666 886.041 236.921 885.527 240.947C884.293 242.865 884.293 242.865 882.527 243.947C880.512 244.31 880.512 244.31 878.277 244.259C877.55 244.255 876.823 244.251 876.074 244.247C873.527 243.947 873.527 243.947 870.547 242.947C864.993 241.283 859.21 241.618 853.465 241.634C852.326 241.618 851.187 241.602 850.014 241.585C836.712 241.578 824.706 244.876 812.277 249.384C810.498 250.022 810.498 250.022 808.682 250.673C796.684 255.077 785.184 260.403 773.697 266.004C771.527 266.947 771.527 266.947 769.527 266.947C773.729 271.822 778.011 276.623 782.34 281.384C782.82 281.916 783.3 282.448 783.794 282.996C786.352 285.858 786.352 285.858 789.527 287.947C798.873 287.753 808.171 286.436 817.414 285.134C818.678 284.96 819.942 284.787 821.244 284.608C824.562 284.151 827.88 283.69 831.198 283.228C835.871 282.577 840.544 281.93 845.219 281.286C847.694 280.945 850.17 280.601 852.645 280.254C896.414 274.206 896.414 274.206 914.672 287.509C921.334 293.547 924.947 302.37 925.73 311.24C926.78 335.166 926.715 359.108 926.713 383.053C926.713 389.056 926.726 395.058 926.744 401.061C926.755 405.724 926.757 410.388 926.756 415.051C926.757 417.266 926.762 419.481 926.77 421.696C926.779 424.776 926.776 427.856 926.77 430.936C926.776 431.836 926.782 432.735 926.787 433.662C926.728 445.576 922.492 457.879 914.465 466.884C907.058 473.502 895.426 478.947 885.527 478.947C885.546 479.911 885.564 480.875 885.582 481.869C885.711 491.813 885.126 501.512 883.965 511.384C883.88 512.126 883.795 512.869 883.707 513.633C881.764 530.326 878.36 546.599 874.527 562.947C874.089 564.882 873.65 566.816 873.211 568.751C860.241 624.546 828.786 681.249 789.449 722.814C787.31 725.078 785.259 727.402 783.227 729.763C779.211 734.378 774.925 738.696 770.59 743.009C769.45 744.155 769.45 744.155 768.287 745.324C743.085 770.483 712.66 791.933 681.402 808.919C679.672 809.867 677.958 810.845 676.246 811.826C649.514 826.785 619.786 837.669 589.962 844.386C588.228 844.785 586.5 845.21 584.777 845.652C574.754 848.15 564.641 849.349 554.402 850.572C552.628 850.79 550.853 851.009 549.078 851.228C510.82 855.925 471.116 855.459 433.527 845.947C432.566 845.706 431.605 845.465 430.614 845.217C422.882 843.254 415.2 841.13 407.527 838.947C406.462 838.648 405.397 838.349 404.299 838.041C372.15 828.942 342.123 815.454 313.967 797.491C311.694 796.052 309.406 794.643 307.106 793.247C300.259 789.082 293.738 784.749 287.459 779.764C283.283 776.464 278.946 773.473 274.527 770.509C267.615 765.844 261.295 760.719 255.023 755.236C252.673 753.21 250.255 751.27 247.84 749.322C240.482 743.313 233.427 737.244 227.297 729.966C225.347 727.74 223.274 725.697 221.152 723.634C211.595 714.141 203.9 703.174 196.135 692.215C195.105 690.761 194.071 689.31 193.033 687.862C170.463 656.36 154.163 618.698 145.527 580.947C144.894 580.948 144.26 580.949 143.607 580.95C128.338 580.886 117.485 580.244 105.527 569.947C104.016 568.087 104.016 568.087 102.84 566.197C102.246 565.276 102.246 565.276 101.641 564.337C99.0035 558.674 98.2591 552.715 97.9078 546.537C97.8672 545.831 97.8265 545.125 97.7847 544.398C97.6543 542.042 97.5386 539.686 97.4259 537.329C97.3843 536.496 97.3426 535.663 97.2997 534.805C96.2092 512.502 96.1528 490.183 96.1569 467.858C96.1571 461.927 96.1293 455.996 96.0953 450.065C96.073 445.423 96.069 440.782 96.0701 436.141C96.0677 433.952 96.059 431.763 96.0434 429.575C95.8595 401.257 95.8595 401.257 104.707 390.72C113.209 382.437 122.735 378.373 134.324 376.615C135.132 376.49 135.939 376.365 136.771 376.236C149.869 374.248 163.01 372.548 176.142 370.802C180.482 370.224 184.821 369.643 189.161 369.062C192.731 368.585 196.302 368.108 199.873 367.635C206.226 366.792 212.579 365.944 218.927 365.062C221.001 364.775 223.075 364.489 225.15 364.205C227.704 363.854 230.257 363.498 232.809 363.137C239.118 362.274 245.16 361.76 251.527 361.947C247.366 353.884 242.941 346.241 237.78 338.766C236.314 336.636 234.862 334.497 233.41 332.357C230.632 328.265 227.829 324.191 225.018 320.121C223.724 318.234 222.455 316.334 221.195 314.423C215.994 306.769 211.66 304.057 202.883 301.669C197.433 300.043 192.659 297.667 187.715 294.884C186.847 294.398 185.979 293.912 185.085 293.411C165.136 282.012 149.178 265.454 142.527 242.947C142.241 241.995 142.241 241.995 141.949 241.025C139.305 228.001 142.555 211.759 148.996 200.212C157.764 187.239 170.707 177.946 186.004 174.497C202.649 171.896 216.93 174.997 231.16 184.197C244.595 194.129 254.097 205.924 256.942 222.615C258.997 236.714 257.278 250.047 254.652 263.947C254.518 264.661 254.383 265.375 254.244 266.111C251.918 278.263 251.918 278.263 250.433 280.865C248.967 284.235 248.893 287.39 249.527 290.947C250.9 294.022 252.745 296.673 254.688 299.415C255.225 300.206 255.762 300.996 256.316 301.811C258.058 304.367 259.824 306.907 261.59 309.447C263.386 312.073 265.176 314.703 266.965 317.335C268.15 319.078 269.338 320.82 270.527 322.561C277.147 332.266 283.342 342.215 289.45 352.249C290.417 353.909 290.417 353.909 291.527 354.947C293.155 354.906 294.781 354.785 296.402 354.634C297.467 354.536 298.532 354.438 299.629 354.337C307.265 353.572 314.897 352.769 322.527 351.947C321.818 350.688 321.818 350.688 321.094 349.404C303.051 316.852 289.668 278.143 286.527 240.947C286.418 239.771 286.308 238.595 286.195 237.384C285.887 233.573 285.671 229.767 285.527 225.947C285.484 224.809 285.484 224.809 285.441 223.648C285.101 212.941 285.594 202.463 286.84 191.822C286.958 190.803 287.075 189.785 287.196 188.736C288.065 181.946 289.56 175.501 291.527 168.947C290.867 168.947 290.207 168.947 289.527 168.947C287.224 159.65 286.218 150.348 289.035 141.068C289.66 138.374 289.722 135.77 289.84 133.009C290.36 126.137 292.345 121.173 297.215 116.236C313.188 103.125 335.718 103.408 355.277 103.572C356.725 103.578 356.725 103.578 358.202 103.584C406.003 103.816 406.003 103.816 422.156 118.419C425.253 121.886 426.9 125.664 428.527 129.947C428.796 129.306 429.064 128.665 429.34 128.005C433.928 117.878 440.307 113.269 450.012 108.208C477.602 98.3064 534.491 96.3233 557.945 117.087Z" fill="#081825"/>
<path d="M857 546C855.005 554.904 852.881 563.742 850.312 572.5C850.098 573.235 849.884 573.971 849.663 574.728C848.129 579.871 848.129 579.871 847 581C845.292 581.275 843.575 581.492 841.855 581.684C840.785 581.807 839.714 581.93 838.611 582.057C837.481 582.182 836.352 582.308 835.188 582.437C832.993 582.683 830.799 582.932 828.605 583.184C827.627 583.292 826.649 583.401 825.641 583.513C822.53 583.929 819.453 584.423 816.36 584.952C810.136 586.003 803.898 586.823 797.633 587.586C796.487 587.728 795.342 587.869 794.161 588.016C791.732 588.316 789.303 588.616 786.873 588.914C780.568 589.689 774.265 590.474 767.961 591.258C766.733 591.41 765.506 591.563 764.241 591.72C746.929 593.875 729.629 596.097 712.39 598.786C702.061 600.354 691.681 601.554 681.314 602.831C671.105 604.089 660.914 605.379 650.752 606.979C644.642 607.933 638.515 608.696 632.375 609.437C624.094 610.439 615.861 611.619 607.625 612.937C597.441 614.56 587.244 615.839 577 617C567.089 618.124 557.225 619.347 547.375 620.937C536.651 622.663 525.904 624.055 515.125 625.375C500.339 627.187 485.571 629.104 470.812 631.125C469.918 631.247 469.024 631.369 468.103 631.495C459.472 632.676 450.844 633.875 442.223 635.122C431.293 636.702 420.349 638.13 409.392 639.504C393.53 641.495 377.683 643.564 361.854 645.804C348.038 647.755 334.199 649.508 320.355 651.246C302.412 653.506 284.509 656.014 266.616 658.64C257.095 660.031 247.584 661.323 238.015 662.339C231.585 663.025 225.224 663.981 218.846 665.031C214.16 665.772 209.744 666.14 205 666C204.486 665.002 204.486 665.002 203.962 663.984C202.395 660.946 200.823 657.91 199.25 654.875C198.711 653.828 198.172 652.782 197.617 651.703C194.369 645.393 194.369 645.393 190.609 639.383C189 637 189 637 189 635C198.897 633.056 208.786 631.608 218.812 630.5C229.129 629.359 239.37 627.964 249.624 626.366C273.905 622.624 298.299 619.394 322.688 616.437C330.321 615.51 337.908 614.406 345.5 613.187C357.964 611.199 370.474 609.66 383 608.125C398.732 606.196 414.439 604.151 430.125 601.875C430.995 601.749 431.865 601.623 432.762 601.493C436.158 601 439.553 600.508 442.949 600.015C457.956 597.841 472.989 595.853 488.039 594.008C490.776 593.672 493.513 593.336 496.25 593C497.265 592.875 497.265 592.875 498.301 592.748C507.06 591.67 515.786 590.458 524.5 589.062C535.306 587.335 546.139 585.95 557 584.625C570.527 582.974 584.018 581.168 597.5 579.187C610.306 577.308 623.125 575.578 635.969 573.98C636.668 573.893 637.367 573.806 638.087 573.717C645.089 572.846 652.093 571.984 659.098 571.134C673.135 569.428 687.125 567.582 701.091 565.375C709.159 564.106 717.229 563.051 725.346 562.161C728.943 561.765 732.538 561.35 736.133 560.934C736.828 560.853 737.523 560.773 738.239 560.69C743.594 560.063 748.924 559.332 754.25 558.5C776.486 555.03 798.834 552.378 821.182 549.75C822.461 549.6 822.461 549.6 823.766 549.447C825.443 549.25 827.121 549.053 828.798 548.857C832.747 548.393 836.694 547.916 840.638 547.407C841.366 547.314 842.095 547.22 842.845 547.123C844.804 546.87 846.762 546.612 848.719 546.354C851.518 546.052 854.19 545.927 857 546Z" fill="white"/>
<path d="M842 602C839.862 609.007 837.077 615.523 833.897 622.12C832.915 624.178 831.962 626.249 831.008 628.32C830.319 629.777 829.629 631.232 828.938 632.688C828.621 633.383 828.305 634.079 827.98 634.795C826.585 637.675 825.507 639.684 822.758 641.398C819.168 642.181 815.59 642.606 811.938 642.938C805.343 643.602 798.8 644.424 792.25 645.438C762.278 650.043 762.278 650.043 750.145 650.789C747.816 650.938 747.816 650.938 745 652C743.016 652.286 741.027 652.534 739.035 652.762C737.783 652.908 736.531 653.054 735.241 653.205C734.564 653.283 733.887 653.361 733.19 653.441C718.873 655.098 704.59 656.971 690.312 658.938C686.543 659.456 682.773 659.974 679.004 660.492C678.076 660.62 677.148 660.747 676.192 660.879C667.048 662.134 657.901 663.358 648.75 664.562C647.989 664.663 647.227 664.763 646.443 664.866C632.143 666.746 617.833 668.539 603.519 670.301C595.594 671.279 587.682 672.304 579.78 673.453C571.484 674.654 563.179 675.795 554.875 676.938C553.91 677.07 552.945 677.203 551.951 677.34C538.853 679.138 525.763 680.807 512.601 682.062C508.061 682.505 503.624 683.02 499.16 683.969C493.352 685.2 487.498 685.847 481.603 686.517C467.516 688.125 453.475 690.011 439.438 692C427.176 693.734 414.917 695.432 402.625 696.938C388.823 698.631 375.032 700.401 361.245 702.206C358.795 702.526 356.344 702.845 353.894 703.162C350.451 703.608 347.009 704.059 343.566 704.512C341.988 704.715 341.988 704.715 340.377 704.922C339.418 705.049 338.459 705.176 337.471 705.307C336.628 705.417 335.785 705.528 334.917 705.641C332.998 705.814 332.998 705.814 332 707C329.326 707.376 326.664 707.694 323.98 707.98C322.254 708.174 320.528 708.368 318.802 708.562C317.886 708.664 316.97 708.765 316.027 708.87C298.984 710.774 282.085 713.117 265.2 716.12C264.486 716.245 263.772 716.371 263.037 716.5C261.13 716.838 259.225 717.183 257.319 717.529C254.139 717.98 251.206 718.19 248 718C246.199 716.602 246.199 716.602 244.688 714.625C244.101 713.892 243.514 713.158 242.91 712.402C241.965 711.213 241.965 711.213 241 710C239.552 708.387 238.093 706.783 236.625 705.188C223.563 690.689 223.563 690.689 222 686C252.409 680.338 283.176 676.526 313.873 672.788C323.774 671.582 333.622 670.166 343.475 668.619C374.43 663.787 405.539 659.85 436.617 655.902C437.996 655.727 439.374 655.551 440.753 655.375C443.249 655.058 445.745 654.743 448.241 654.431C454.88 653.588 461.482 652.613 468.086 651.539C478.336 649.883 488.623 648.673 498.938 647.5C510.315 646.204 521.649 644.795 532.967 643.048C539.939 641.982 546.919 641.188 553.938 640.5C564.631 639.398 575.251 638.056 585.882 636.465C592.481 635.48 599.084 634.517 605.688 633.562C606.427 633.455 607.166 633.348 607.928 633.238C620.863 631.372 633.819 629.774 646.809 628.344C653.145 627.638 659.375 626.809 665.61 625.471C670.161 624.574 674.77 624.1 679.375 623.562C691.468 622.102 703.503 620.354 715.531 618.438C722.101 617.397 728.677 616.561 735.286 615.82C740.678 615.198 746.021 614.383 751.375 613.5C757.387 612.515 763.373 611.704 769.438 611.125C778.892 610.214 788.285 608.889 797.688 607.562C808.492 606.039 819.297 604.537 830.125 603.188C831.113 603.064 832.102 602.94 833.12 602.813C839.725 602 839.725 602 842 602Z" fill="#2B6684"/>
<path d="M807 664C806.67 665.32 806.34 666.64 806 668C805.34 668 804.68 668 804 668C803.794 668.672 803.588 669.343 803.375 670.035C801.513 674.05 798.847 677.076 796 680.438C791.126 686.285 786.541 692.221 782.336 698.57C779.368 702.918 776.546 705.478 771.306 706.553C770.338 706.637 769.369 706.722 768.371 706.809C767.267 706.914 766.164 707.019 765.026 707.127C763.25 707.281 763.25 707.281 761.438 707.438C750.22 708.517 739.09 709.896 727.943 711.554C720.178 712.706 712.403 713.725 704.612 714.679C699.174 715.347 693.738 716.024 688.301 716.699C687.039 716.856 685.777 717.013 684.476 717.174C654.666 720.879 624.872 724.69 595.095 728.658C583.015 730.267 570.932 731.851 558.848 733.433C555.01 733.936 551.171 734.439 547.333 734.943C536.2 736.402 525.066 737.861 513.932 739.317C462.395 745.955 462.395 745.955 410.947 753.242C410.243 753.348 409.538 753.454 408.812 753.563C408.117 753.667 407.422 753.771 406.706 753.879C392.468 756.007 378.19 757.698 363.888 759.326C357.421 760.063 350.96 760.831 344.5 761.625C343.105 761.792 343.105 761.792 341.681 761.961C336.454 762.608 331.331 763.492 326.174 764.563C322.93 765.215 319.715 765.567 316.418 765.813C314.038 765.958 314.038 765.958 311.863 766.375C303.665 767.345 297.262 761.589 291 757C290.124 756.359 290.124 756.359 289.229 755.705C285.416 752.888 281.693 749.974 278 747C277.157 746.325 276.314 745.649 275.445 744.953C269.951 740.378 269.951 740.378 269 736C279.911 733.662 290.815 731.946 301.875 730.5C303.51 730.282 305.145 730.064 306.781 729.846C317.09 728.478 327.409 727.219 337.74 726.021C344.083 725.272 350.354 724.311 356.641 723.193C364.246 721.88 371.903 720.989 379.562 720.063C390.556 718.731 401.495 717.232 412.418 715.395C418.851 714.316 425.294 713.404 431.762 712.558C436.499 711.938 441.232 711.286 445.965 710.633C467.96 707.607 489.962 704.696 512 702C534.239 699.311 534.239 699.311 556.414 696.144C567.718 694.4 579.067 692.974 590.406 691.478C596.372 690.685 602.335 689.866 608.296 689.039C613.3 688.35 618.308 687.712 623.32 687.094C632.286 685.985 641.234 684.749 650.183 683.514C674.273 680.191 674.273 680.191 685.07 678.859C685.767 678.774 686.463 678.688 687.18 678.599C690.309 678.215 693.439 677.838 696.57 677.469C704.388 676.526 712.155 675.368 719.934 674.148C733.876 671.97 747.852 670.087 761.846 668.28C765.296 667.835 768.744 667.379 772.192 666.922C775.553 666.478 778.915 666.044 782.277 665.609C783.495 665.447 784.713 665.285 785.968 665.117C793.023 664.219 799.888 663.791 807 664Z" fill="#C73825"/>
<path d="M417 176C428.669 218.229 417.846 272.098 402 312C401.52 313.285 401.044 314.572 400.57 315.859C399.316 319.246 398.04 322.624 396.755 325.999C396.048 327.872 395.361 329.752 394.676 331.633C394.267 332.703 393.859 333.773 393.438 334.875C393.086 335.821 392.734 336.767 392.371 337.742C390.558 340.727 389.321 340.941 386 342C383.165 342.497 380.367 342.926 377.516 343.289C376.701 343.397 375.886 343.505 375.046 343.617C373.325 343.843 371.604 344.067 369.882 344.287C367.271 344.622 364.663 344.97 362.055 345.32C360.375 345.54 358.695 345.759 357.016 345.977C355.862 346.131 355.862 346.131 354.685 346.289C343.735 347.667 343.735 347.667 339 347C336.617 344.648 336.617 344.648 334.875 341.375C334.551 340.779 334.226 340.184 333.892 339.57C333.222 338.326 332.567 337.072 331.928 335.812C331.1 334.195 330.203 332.614 329.297 331.039C322.403 318.508 318.437 304.541 314 291C313.654 289.96 313.307 288.921 312.951 287.85C304.746 263.091 299.585 237.175 299.739 211.036C299.75 208.869 299.739 206.702 299.727 204.535C299.719 195.508 300.452 186.913 302 178C311.466 179.466 311.466 179.466 314 182C314.181 184.765 314.278 187.482 314.312 190.25C314.342 191.014 314.371 191.779 314.4 192.566C314.46 197.868 313.53 199.904 310 204C309.521 206.891 309.521 206.891 309.75 209.812C309.786 210.788 309.822 211.764 309.859 212.77C309.906 213.506 309.952 214.242 310 215C310.66 215 311.32 215 312 215C312.495 215.66 312.99 216.32 313.5 217C316.878 219.703 319.352 219.621 323.586 219.465C327.239 218.761 328.842 216.924 331 214C332.237 211.526 332.133 209.821 332.125 207.062C332.128 206.187 332.13 205.312 332.133 204.41C332.098 201.855 332.098 201.855 331 199C330.01 198.67 329.02 198.34 328 198C328 193.71 328 189.42 328 185C329.049 185.144 330.099 185.289 331.18 185.438C342.672 186.866 354.06 187.199 365.625 187.188C366.36 187.188 367.095 187.189 367.852 187.19C375.946 187.189 383.961 187.058 392 186C393.084 190.006 393.731 193.878 393 198C391.883 199.758 391.883 199.758 390.5 201.438C387.735 204.871 387.469 207.455 387.531 211.789C388.171 214.804 389.018 216.622 391 219C394.089 219.644 394.089 219.644 397.5 219.375C398.645 219.341 399.789 219.308 400.969 219.273C404.044 219.113 404.044 219.113 407 218C408.184 215.624 408.184 215.624 409 213C409.33 212.01 409.66 211.02 410 210C410.333 206.542 410.333 206.542 410 203C409.256 202.201 409.256 202.201 408.496 201.387C406.105 197.572 406.686 193.649 406.812 189.25C406.833 187.918 406.833 187.918 406.854 186.559C406.889 184.372 406.938 182.186 407 180C408.289 179.328 409.581 178.663 410.875 178C411.594 177.629 412.314 177.257 413.055 176.875C415 176 415 176 417 176Z" fill="#C83925"/>
<path d="M554 176C558.052 184.985 558.2 192.878 558.187 202.688C558.188 203.749 558.188 203.749 558.188 204.833C558.133 249.616 558.133 249.616 551.906 266.492C550.955 269.124 550.127 271.784 549.311 274.461C545.372 287.352 540.939 299.993 535.75 312.438C535.238 313.673 535.238 313.673 534.716 314.933C534.392 315.696 534.068 316.46 533.734 317.246C533.448 317.923 533.161 318.601 532.866 319.299C532 321 532 321 530 323C527.35 323.544 527.35 323.544 523.946 323.961C522.674 324.121 521.403 324.281 520.093 324.446C518.698 324.613 517.304 324.779 515.91 324.945C514.485 325.121 513.06 325.298 511.636 325.475C508.648 325.845 505.659 326.209 502.67 326.569C498.838 327.03 495.007 327.501 491.176 327.974C487.525 328.426 483.874 328.873 480.223 329.32C479.525 329.406 478.827 329.491 478.109 329.58C476.134 329.821 474.159 330.059 472.184 330.297C470.497 330.501 470.497 330.501 468.777 330.71C466 331 466 331 463 331C461.576 327.899 460.162 324.794 458.75 321.688C458.354 320.826 457.958 319.964 457.551 319.076C450.953 304.529 446.893 289.455 443 274C442.81 273.251 442.62 272.502 442.424 271.73C437.551 251.839 437.828 230.455 437.75 210.062C437.745 209.365 437.739 208.668 437.734 207.949C437.676 198.132 438.471 188.687 440 179C443.3 179.33 446.6 179.66 450 180C450.108 182.897 450.187 185.79 450.25 188.688C450.3 189.912 450.3 189.912 450.352 191.162C450.439 196.577 449.773 198.891 446 203C444.9 207.652 445.605 211.25 447.812 215.438C449.923 218.146 449.923 218.146 453 220C458.411 219.796 461.85 218.475 466 215C468.331 211.08 468.533 207.489 468 203C466.816 200.908 465.482 198.974 464.117 196.996C462.423 193.97 462.587 191.37 463 188C464 187 464 187 467.069 186.918C468.446 186.932 469.823 186.95 471.199 186.973C472.724 186.987 474.249 187.001 475.774 187.014C476.978 187.026 476.978 187.026 478.207 187.039C492.928 187.178 507.37 186.775 522 185C523.694 184.809 525.388 184.621 527.082 184.434C529.021 184.219 529.021 184.219 531 184C530.735 190.715 529.796 194.367 526 200C525.228 204.569 525.687 208.953 528 213C529.305 214.036 530.635 215.044 532 216C532 216.66 532 217.32 532 218C540.053 217.701 540.053 217.701 547 214C548.247 210.259 548.67 206.879 548 203C546.859 201.185 546.859 201.185 545.437 199.438C541.926 194.382 542.496 189.172 543.078 183.324C544 180 544 180 545.797 178.145C548.569 176.743 550.89 176 554 176Z" fill="#2B6684"/>
<path d="M693 176C697.095 210.661 693.767 250.433 681.297 283.148C680.248 285.961 679.755 288.563 679.391 291.539C678.488 296.711 677.309 300.726 673 304C663.125 307.476 652.304 307.824 641.939 308.598C637.153 308.966 632.401 309.51 627.641 310.121C626.896 310.217 626.152 310.312 625.385 310.41C623.923 310.599 622.461 310.788 620.998 310.978C612.015 312.129 603.016 313.148 594 314C586.833 297.826 582.189 281.843 579.386 264.376C579.063 262.39 578.709 260.409 578.348 258.43C575.842 244.711 575.814 230.868 575.815 216.969C575.812 214.071 575.794 211.173 575.775 208.275C575.744 197.669 576.2 187.467 578 177C584.75 178.75 584.75 178.75 587 181C587.226 183.979 587.324 186.834 587.312 189.812C587.329 190.62 587.345 191.428 587.361 192.26C587.365 197.139 586.837 199.893 584 204C583.592 209.144 583.792 213.235 586 218C590.357 219.452 594.451 219.637 599 219C602.206 217.368 604.25 215.023 606.375 212.125C607.908 206.912 607.268 201.877 605 197C603.68 196.34 602.36 195.68 601 195C601 191.04 601 187.08 601 183C602.284 183.217 603.568 183.433 604.891 183.656C626.239 187.09 646.524 185.905 668 184C668.02 185.609 668.035 187.219 668.047 188.828C668.056 189.724 668.064 190.621 668.073 191.544C667.942 195.932 666.447 198.395 663.875 201.875C661.612 205.647 661.449 207.667 662 212C663.696 215.816 665.151 217.474 669 219C673.844 219.338 677.176 218.652 681 215.625C684.054 211.616 684.383 208.197 684.367 203.316C683.949 200.675 683.233 199.68 681.5 197.688C678.126 193.646 678.561 189.644 678.727 184.574C679 182 679 182 680 180C681.926 178.93 681.926 178.93 684.312 177.875C685.092 177.522 685.872 177.169 686.676 176.805C689 176 689 176 693 176Z" fill="#C83925"/>
<path d="M754 729C749.357 733.928 744.369 738.231 739.098 742.473C735.067 745.762 731.133 749.158 727.211 752.575C726.093 753.542 724.969 754.5 723.838 755.451C722.517 756.564 721.215 757.699 719.926 758.848C714.399 763.537 709.946 765.269 702.812 766.187C701.833 766.336 700.853 766.484 699.844 766.636C696.566 767.122 693.284 767.563 690 768C687.557 768.341 685.115 768.682 682.672 769.023C670.291 770.729 657.891 772.27 645.487 773.792C637.559 774.777 629.65 775.88 621.741 776.996C606.698 779.119 591.64 781.075 576.562 782.937C559.925 784.993 543.301 787.132 526.687 789.371C515.848 790.831 505.006 792.265 494.156 793.641C493.089 793.776 492.022 793.911 490.923 794.051C485.774 794.703 480.626 795.352 475.476 795.996C467.182 797.039 458.923 798.123 450.687 799.562C445.69 800.377 440.657 800.89 435.625 801.437C425.287 802.594 414.981 803.909 404.68 805.352C384.886 808.116 384.886 808.116 379.293 805.484C378.511 805.121 377.729 804.758 376.924 804.384C375.959 803.927 374.994 803.471 374 803C372.723 802.406 371.446 801.812 370.168 801.219C366.464 799.498 362.766 797.765 359.069 796.027C356.743 794.934 354.414 793.845 352.086 792.756C350.594 792.055 349.101 791.354 347.609 790.652C346.92 790.33 346.23 790.008 345.519 789.677C341.89 787.965 338.354 786.211 335 784C335 783.67 335 783.34 335 783C352.883 780.165 370.777 777.579 388.75 775.375C389.608 775.27 390.466 775.165 391.35 775.056C392.201 774.952 393.052 774.847 393.929 774.74C395.6 774.535 397.271 774.33 398.941 774.125C399.742 774.027 400.542 773.929 401.367 773.827C411.379 772.592 421.357 771.147 431.332 769.65C442.886 767.922 454.457 766.458 466.062 765.125C478.502 763.696 490.903 762.08 503.299 760.316C519.41 758.027 535.555 756.025 551.708 754.055C560.285 753.004 568.829 751.934 577.342 750.436C583.388 749.445 589.496 748.884 595.586 748.232C602.25 747.495 608.868 746.584 615.492 745.562C627.094 743.78 638.739 742.447 650.4 741.122C653.113 740.813 655.826 740.498 658.539 740.184C659.746 740.049 659.746 740.049 660.976 739.912C665.948 739.333 670.799 738.469 675.699 737.453C678.635 736.875 681.563 736.518 684.539 736.219C685.687 736.1 686.836 735.982 688.019 735.86C689.209 735.741 690.399 735.622 691.625 735.5C694.141 735.239 696.656 734.978 699.172 734.715C700.365 734.591 701.558 734.467 702.787 734.339C711.052 733.466 719.287 732.379 727.518 731.236C730.274 730.855 733.031 730.477 735.788 730.1C737.85 729.816 739.911 729.524 741.972 729.233C743.237 729.059 744.502 728.886 745.805 728.707C746.949 728.547 748.094 728.387 749.273 728.222C752 728 752 728 754 729Z" fill="white"/>
<path d="M245 793C247.31 794.729 249.34 796.421 251.437 798.375C263.997 809.576 277.913 818.838 292 828C293.029 828.674 294.057 829.348 295.117 830.043C317.227 844.094 341.295 856.249 365.688 865.808C368.414 866.883 370.955 867.972 373.457 869.508C376.824 871.483 380.37 872.669 384.062 873.875C385.248 874.264 385.248 874.264 386.457 874.66C412.853 883.129 441.608 889.297 469.344 890.566C470.204 890.607 471.064 890.648 471.95 890.69C481.341 891.104 490.726 891.197 500.125 891.187C501.019 891.188 501.912 891.188 502.833 891.188C515.535 891.176 528.195 890.871 540.875 890.125C541.909 890.066 541.909 890.066 542.964 890.006C550.512 889.564 557.878 888.798 565.319 887.459C569.094 886.812 572.876 886.473 576.687 886.125C585.009 885.282 592.929 883.537 601.024 881.485C604.042 880.744 607.082 880.126 610.125 879.5C630.788 875.082 651.377 869.107 670 859C671.823 858.079 673.653 857.176 675.486 856.274C704.09 842.18 730.038 826.402 755.413 807.17C759.085 804.463 761.413 803.483 766.059 803.629C768 804 768 804 770.5 806C772.435 809.87 773.036 812.832 772 817C767.448 826.953 755.712 833.072 747 839C746.415 839.401 745.829 839.803 745.226 840.216C741.849 842.527 738.432 844.771 735 847C733.975 847.681 732.95 848.361 731.895 849.062C707.534 865.055 681.667 877.964 654.36 888.117C652.92 888.656 651.483 889.206 650.054 889.776C643.648 892.305 637.022 894.038 630.375 895.812C629.727 895.986 629.079 896.159 628.411 896.337C614.771 899.964 601.034 902.838 587.155 905.411C584.559 905.896 581.971 906.405 579.383 906.93C529.52 916.662 472.617 915.679 423 905C422.318 904.855 421.636 904.71 420.934 904.56C416.244 903.533 411.622 902.292 407 901C406.058 900.743 405.115 900.485 404.145 900.22C386.259 895.302 369.144 889.056 352 882C349.833 881.118 347.667 880.237 345.5 879.355C339.642 876.959 333.815 874.498 328 872C327.258 871.686 326.517 871.371 325.753 871.047C303.512 861.53 282.639 847.845 263.125 833.687C262.365 833.136 261.604 832.585 260.821 832.017C253.736 826.852 246.78 821.559 240 816C239.202 815.377 238.404 814.755 237.582 814.113C234.824 811.752 233.261 810.154 232.449 806.562C232.151 800.829 233.248 797.304 237 793C240.032 791.484 241.755 792.11 245 793Z" fill="#091825"/>
<path d="M485 373C490.348 377.574 492.73 383.631 493.281 390.5C493.435 394.86 493.418 399.22 493.398 403.582C493.4 405.203 493.403 406.825 493.407 408.446C493.412 411.836 493.405 415.226 493.391 418.615C493.374 422.932 493.384 427.249 493.402 431.566C493.413 434.913 493.409 438.259 493.401 441.606C493.399 443.197 493.402 444.787 493.409 446.377C493.451 458.424 492.397 468.552 486 479C485.24 481.27 485.24 481.27 485 483C486 484 486 484 487.5 485.5C488.5 487 488.66 485.8 489 487.5C489.66 487.5 489.82 489.5 490.5 489.5C488.996 493.329 488.443 492.781 485 495C481.5 496 481.5 496 478 496C476.824 495.01 476.824 495.01 475.625 494C473.3 491.823 473.3 491.823 471.113 491.953C469.602 492.159 468.093 492.383 466.586 492.621C457.863 493.899 449.672 493.686 442 489C435.616 483.881 433.411 477.874 432 470C431.628 464.954 431.667 459.93 431.75 454.875C431.765 453.411 431.779 451.946 431.792 450.482C431.825 447.339 431.869 444.196 431.922 441.053C431.995 436.644 432.034 432.235 432.069 427.825C432.102 424.138 432.154 420.452 432.212 416.766C432.237 414.982 432.257 413.197 432.27 411.413C432.375 399.076 432.804 386.384 442 377C453.813 366.905 471.872 363.7 485 373Z" fill="white"/>
<path d="M862.688 316.75C863.643 316.729 864.599 316.709 865.584 316.687C873.104 316.646 879.806 317.445 885.813 322.25C893.616 332.06 894.155 341.982 894.25 354.187C894.264 355.434 894.264 355.434 894.278 356.706C894.223 367.536 891.724 378.143 884.125 386.25C881.713 388.792 881.713 388.792 882 391.812C883.897 397.858 885.947 403.852 888 409.846C888.999 412.767 889.991 415.69 890.981 418.613C891.498 420.133 892.018 421.651 892.541 423.169C893.301 425.378 894.05 427.591 894.797 429.805C895.033 430.483 895.27 431.161 895.513 431.86C897.114 436.658 897.114 436.658 896 440C886.1 440.99 886.1 440.99 876 442C873.321 434.956 871.028 427.884 868.938 420.651C866.744 413.063 864.382 405.531 862 398C859.03 397.67 856.06 397.34 853 397C853 412.84 853 428.68 853 445C843.1 445.99 843.1 445.99 833 447C832.977 430.459 832.959 413.917 832.948 397.376C832.943 389.696 832.936 382.016 832.925 374.336C832.915 367.644 832.908 360.953 832.906 354.261C832.905 350.716 832.902 347.171 832.894 343.626C832.886 339.674 832.886 335.723 832.887 331.772C832.883 330.588 832.879 329.404 832.876 328.184C832.877 327.114 832.878 326.044 832.88 324.942C832.879 324.006 832.878 323.07 832.877 322.106C833 320 833 320 834 319C836.267 318.789 838.539 318.631 840.813 318.5C845.406 318.304 845.406 318.304 849.908 317.495C854.082 316.507 858.419 316.773 862.688 316.75Z" fill="white"/>
<path d="M695.094 345.184C700.894 349.522 703.054 355.739 704.582 362.621C706.602 378.95 706.479 395.449 696.367 409.098C694.344 411.871 694.344 411.871 693 415C693.658 417.969 693.658 417.969 695 421.25C697.925 429.255 699.948 437.419 701.943 445.698C702.907 449.68 703.858 453.583 705.176 457.465C706 460 706 460 706 464C699.652 466.308 693.705 466.198 687 466C684.25 459.009 682.073 451.888 679.937 444.687C679.586 443.528 679.235 442.368 678.873 441.174C676.784 434.149 675.174 427.235 674 420C669.05 420.495 669.05 420.495 664 421C664 436.84 664 452.68 664 469C659.885 470.029 655.96 470.336 651.75 470.562C650.632 470.627 650.632 470.627 649.492 470.693C647.662 470.799 645.831 470.9 644 471C643.977 458.576 643.959 446.151 643.948 433.727C643.943 427.954 643.936 422.182 643.925 416.41C643.828 366.675 643.828 366.675 645 344C646.433 343.855 647.867 343.709 649.3 343.564C650.568 343.435 650.568 343.435 651.863 343.304C653.623 343.126 655.384 342.949 657.146 342.774C658.288 342.656 658.288 342.656 659.453 342.535C660.228 342.457 661.003 342.378 661.802 342.297C684.549 339.223 684.549 339.223 695.094 345.184Z" fill="white"/>
<path d="M398 378C397.67 418.92 397.34 459.84 397 502C388.585 502.99 388.585 502.99 380 504C379.49 502.543 378.979 501.087 378.453 499.586C372.773 483.523 366.593 467.708 360.186 451.925C359.116 449.286 358.057 446.643 357 444C356.67 464.79 356.34 485.58 356 507C347.09 507.99 347.09 507.99 338 509C336.32 507.32 336.873 505.253 336.871 502.948C336.867 501.855 336.864 500.762 336.861 499.636C336.863 498.428 336.865 497.221 336.867 495.977C336.866 494.716 336.865 493.455 336.863 492.156C336.86 488.699 336.865 485.242 336.871 481.785C336.875 479.633 336.877 477.481 336.878 475.329C336.896 445.213 337.368 415.109 338 385C342.187 384.202 346.115 383.89 350.375 383.938C351.964 383.951 351.964 383.951 353.586 383.965C354.781 383.982 354.781 383.982 356 384C356.205 384.569 356.409 385.138 356.62 385.724C363.729 405.489 370.863 425.245 378 445C378.038 443.326 378.038 443.326 378.076 441.617C378.541 421.07 379.01 400.53 380 380C382.931 378.535 385.742 378.648 389 378.438C390.887 378.312 390.887 378.312 392.813 378.184C394.54 378.084 396.27 378 398 378Z" fill="white"/>
<path d="M615 348C619.146 364.135 621.831 380.549 624.375 397C624.978 400.86 625.584 404.719 626.191 408.578C626.417 410.018 626.417 410.018 626.648 411.486C627.637 417.762 628.66 424.032 629.715 430.297C629.851 431.105 629.987 431.914 630.127 432.747C630.762 436.508 631.401 440.268 632.046 444.027C633.629 453.326 634.903 462.633 636 472C629.253 473.234 622.87 474.264 616 474C614.88 471.76 614.713 470.134 614.465 467.648C614.386 466.882 614.307 466.115 614.226 465.326C614.131 464.352 614.036 463.378 613.938 462.375C613.628 459.281 613.319 456.187 613 453C602.605 453.99 602.605 453.99 592 455C591.01 462.26 590.02 469.52 589 477C578.875 479.25 578.875 479.25 574.438 479.125C573.591 479.107 572.744 479.089 571.871 479.07C571.254 479.047 570.636 479.024 570 479C569.887 473.681 570.212 468.884 571.207 463.633C571.333 462.954 571.459 462.276 571.589 461.577C571.99 459.425 572.401 457.275 572.813 455.125C573.343 452.316 573.869 449.506 574.395 446.695C574.528 445.984 574.662 445.272 574.8 444.539C575.747 439.462 576.62 434.374 577.457 429.277C579.15 418.977 581.003 408.707 582.875 398.437C583.049 397.481 583.223 396.524 583.403 395.538C585.515 383.95 587.648 372.367 589.938 360.812C590.137 359.799 590.335 358.786 590.541 357.742C590.722 356.844 590.903 355.945 591.09 355.02C591.243 354.257 591.396 353.495 591.554 352.71C592 351 592 351 593 350C595.752 349.596 598.487 349.246 601.25 348.937C602.014 348.847 602.779 348.756 603.566 348.662C607.398 348.222 611.135 347.884 615 348Z" fill="white"/>
<path d="M228 400C228.167 400.96 228.335 401.919 228.507 402.908C229.97 411.27 231.473 419.625 233.016 427.973C233.194 428.938 233.372 429.903 233.556 430.897C233.928 432.912 234.301 434.928 234.674 436.943C238.147 455.74 241.541 474.548 244.792 493.385C245.058 494.922 245.324 496.459 245.59 497.996C245.713 498.713 245.837 499.429 245.964 500.168C246.767 504.782 247.655 509.369 248.67 513.942C249.051 516.319 249.054 518.596 249 521C246.605 521.337 244.209 521.67 241.812 522C241.139 522.095 240.465 522.191 239.771 522.289C236.153 522.783 232.652 523.113 229 523C228.497 520.23 227.997 517.459 227.5 514.688C227.357 513.902 227.214 513.116 227.066 512.307C226.863 511.171 226.863 511.171 226.656 510.012C226.531 509.315 226.405 508.619 226.275 507.901C226 506 226 506 226 503C224.903 503.217 223.806 503.433 222.676 503.656C221.221 503.938 219.767 504.219 218.312 504.5C217.591 504.643 216.87 504.786 216.127 504.934C215.421 505.069 214.715 505.204 213.988 505.344C213.022 505.532 213.022 505.532 212.036 505.725C209.673 506.044 207.382 506.043 205 506C204.914 506.601 204.829 507.201 204.74 507.82C204.352 510.527 203.957 513.232 203.562 515.938C203.428 516.883 203.293 517.829 203.154 518.803C203.022 519.702 202.89 520.601 202.754 521.527C202.633 522.36 202.513 523.193 202.389 524.051C202 526 202 526 201 527C198.946 527.403 196.881 527.747 194.812 528.063C193.121 528.327 193.121 528.327 191.395 528.598C188.222 528.974 185.19 529.073 182 529C182.726 521.847 183.761 514.779 184.938 507.688C185.146 506.428 185.355 505.168 185.571 503.87C187.991 489.508 190.816 475.221 193.596 460.926C197.341 441.661 200.82 422.366 204 403C212.087 400.19 219.527 399.872 228 400Z" fill="white"/>
<path d="M559.285 354.973C560.616 354.979 560.616 354.979 561.973 354.985C562.642 354.99 563.311 354.995 564 355C564.07 367.701 564.123 380.401 564.155 393.102C564.171 399.001 564.192 404.899 564.226 410.797C564.259 416.497 564.277 422.196 564.285 427.895C564.29 430.063 564.301 432.23 564.317 434.397C564.54 465.299 564.54 465.299 555.352 475.902C547.072 483.895 537.577 485.675 526.431 485.611C521.117 485.381 517.473 484.595 513.539 480.777C513.031 480.191 512.523 479.604 512 479C511.43 478.424 510.86 477.848 510.273 477.254C504.356 470.958 503.704 464.769 503.757 456.418C503.755 455.471 503.753 454.524 503.751 453.548C503.748 450.428 503.758 447.308 503.77 444.188C503.771 442.013 503.771 439.839 503.771 437.665C503.773 433.112 503.781 428.56 503.794 424.007C503.811 418.176 503.815 412.346 503.814 406.515C503.815 402.026 503.82 397.538 503.827 393.049C503.83 390.9 503.832 388.75 503.833 386.6C503.835 383.594 503.844 380.588 503.855 377.582C503.854 376.697 503.854 375.811 503.853 374.899C503.876 370.487 504.112 366.344 505 362C507.041 361.661 509.083 361.329 511.125 361C512.262 360.814 513.399 360.629 514.57 360.438C517.766 360.03 520.785 359.968 524 360C523.993 361.866 523.993 361.866 523.987 363.769C523.946 375.482 523.916 387.195 523.896 398.908C523.886 404.93 523.872 410.952 523.849 416.974C523.827 422.783 523.815 428.593 523.81 434.402C523.807 436.621 523.799 438.839 523.789 441.058C523.774 444.16 523.772 447.263 523.773 450.366C523.762 451.747 523.762 451.747 523.751 453.156C523.754 454.003 523.757 454.85 523.76 455.723C523.757 456.823 523.757 456.823 523.754 457.946C524.042 460.353 524.729 461.944 526 464C529.46 465.73 533.217 465.484 537 465C540.499 462.886 541.706 461.883 543 458C543.111 456.198 543.166 454.392 543.189 452.587C543.206 451.47 543.223 450.354 543.24 449.204C543.254 447.987 543.267 446.77 543.281 445.516C543.309 443.573 543.337 441.631 543.364 439.688C543.393 437.624 543.42 435.56 543.446 433.496C543.526 427.131 543.623 420.767 543.718 414.403C543.75 412.284 543.781 410.164 543.813 408.045C543.976 397.088 544.172 386.133 544.44 375.178C544.48 373.521 544.518 371.863 544.554 370.206C544.604 367.954 544.66 365.701 544.719 363.449C544.749 362.215 544.779 360.981 544.811 359.71C545 357 545 357 546 356C550.475 355.268 554.751 354.946 559.285 354.973Z" fill="white"/>
<path d="M864 486C863.762 490.145 863.513 494.289 863.255 498.433C863.169 499.84 863.086 501.247 863.005 502.655C862.889 504.688 862.762 506.721 862.633 508.754C862.559 509.974 862.486 511.194 862.411 512.451C861.977 516.199 861.131 519.412 860 523C859.269 523.095 858.539 523.19 857.786 523.288C843.739 525.121 829.708 527.019 815.699 529.126C800.483 531.413 785.241 533.391 769.967 535.254C760.602 536.4 751.253 537.58 741.954 539.188C736.605 540.071 731.4 540.119 726 540C726.142 538.25 726.289 536.5 726.438 534.75C726.519 533.775 726.6 532.801 726.684 531.797C727 529 727 529 727.5 527.137C728.063 524.732 728.211 522.483 728.316 520.016C728.358 519.081 728.4 518.146 728.443 517.184C728.502 515.731 728.502 515.731 728.562 514.25C728.606 513.266 728.649 512.283 728.693 511.27C728.799 508.846 728.901 506.423 729 504C736.238 502.208 743.463 501.237 750.864 500.369C761.522 499.115 772.15 497.744 782.75 496.062C803.695 492.748 824.718 489.894 845.75 487.187C847.158 487.002 847.158 487.002 848.594 486.812C853.776 486.161 858.777 485.885 864 486Z" fill="white"/>
<path d="M824 321C824.027 323.604 824.047 326.208 824.062 328.812C824.071 329.55 824.079 330.288 824.088 331.049C824.103 334.299 824.035 336.894 823 340C819.983 340.832 817.072 341.436 814 342C812.175 342.391 812.175 342.391 810.312 342.789C804.037 344.123 798.492 345 792 345C792 356.22 792 367.44 792 379C800.58 378.01 809.16 377.02 818 376C818 389.5 818 389.5 817 395C811.747 397.049 806.685 397.614 801.125 398.125C798.114 398.414 795.102 398.702 792 399C792 409.89 792 420.78 792 432C801.035 431.015 801.035 431.015 810.069 430.025C811.196 429.904 812.323 429.782 813.484 429.656C815.213 429.468 815.213 429.468 816.976 429.275C820 429 820 429 824 429C824 435.27 824 441.54 824 448C818.22 448.839 812.44 449.676 806.66 450.509C804.698 450.792 802.736 451.076 800.774 451.361C797.937 451.773 795.099 452.182 792.262 452.59C791.4 452.716 790.538 452.842 789.65 452.972C783.448 453.858 777.243 454.484 771 455C770.9 429.121 771.177 403.247 771.464 377.369C771.525 371.783 771.585 366.197 771.645 360.611C771.761 349.741 771.88 338.87 772 328C778.193 326.711 784.374 325.577 790.641 324.711C791.411 324.603 792.182 324.495 792.976 324.383C794.586 324.158 796.196 323.935 797.806 323.713C800.259 323.374 802.712 323.027 805.164 322.68C806.74 322.46 808.315 322.242 809.891 322.023C810.616 321.92 811.341 321.817 812.088 321.711C816.09 321.166 819.962 320.896 824 321Z" fill="white"/>
<path d="M294 564C294 574.89 294 585.78 294 597C281.413 599.189 268.83 600.993 256.153 602.562C250.976 603.204 245.8 603.857 240.625 604.512C239.613 604.64 238.601 604.768 237.558 604.899C229.401 605.936 221.261 607.061 213.125 608.25C186.363 612.153 186.363 612.153 178 612C176.166 607.8 175.056 603.506 174 599.062C173.088 595.246 172.181 591.514 170.875 587.809C170.001 585.005 169.932 582.908 170 580C179.332 578.615 188.665 577.241 198 575.875C198.696 575.773 199.392 575.671 200.11 575.566C221.893 572.381 243.691 569.416 265.547 566.765C266.488 566.651 267.429 566.537 268.398 566.419C270.127 566.211 271.856 566.003 273.585 565.798C276.767 565.417 279.905 565.018 283.057 564.432C286 564 286 564 294 564Z" fill="white"/>
<path d="M664 791C659.538 796.232 654.064 798.905 648 802C647.069 802.496 646.139 802.993 645.18 803.504C629.921 811.466 613.462 816.211 597 821C596.208 821.236 595.416 821.472 594.6 821.715C584.057 824.838 573.399 826.934 562.562 828.75C561.306 828.961 560.05 829.172 558.756 829.389C543.56 831.841 528.613 832.275 513.25 832.313C512.191 832.315 511.132 832.318 510.041 832.321C483.88 832.338 459.08 829.824 434 822C434 821.34 434 820.68 434 820C434.645 819.929 435.291 819.859 435.956 819.786C442.738 819.042 449.52 818.295 456.302 817.546C458.826 817.268 461.349 816.991 463.873 816.714C481.619 814.815 481.619 814.815 499.295 812.364C502.322 811.957 505.325 811.774 508.375 811.625C516.031 811.151 523.5 809.817 531.052 808.514C538.596 807.217 546.119 806.145 553.724 805.265C558.61 804.696 563.492 804.098 568.375 803.5C569.374 803.381 570.373 803.263 571.402 803.14C576.867 802.471 582.221 801.598 587.609 800.473C591.508 799.702 595.435 799.198 599.375 798.688C601.281 798.434 603.188 798.18 605.094 797.926C606.162 797.784 607.231 797.641 608.332 797.495C616.647 796.373 624.956 795.202 633.265 794.041C635.549 793.722 637.833 793.404 640.117 793.086C641.132 792.944 641.132 792.944 642.167 792.799C649.497 791.779 656.591 790.868 664 791Z" fill="white"/>
<path d="M764 329C764 335.93 764 342.86 764 350C757.226 351.355 752.591 352.244 746 352C746.002 352.588 746.004 353.177 746.007 353.783C746.133 388.87 745.849 423.923 745 459C743.356 459.344 741.71 459.675 740.062 460C739.146 460.186 738.229 460.371 737.285 460.562C733.169 461.111 729.145 461.083 725 461C724.842 425.319 725.277 389.673 726 354C725.103 354.244 725.103 354.244 724.188 354.494C719.595 355.556 714.679 355.051 710 355C710 348.73 710 342.46 710 336C719.926 334.239 729.882 332.946 739.885 331.713C742.654 331.371 745.423 331.026 748.191 330.68C749.953 330.461 751.715 330.242 753.477 330.023C754.717 329.869 754.717 329.869 755.983 329.711C761.768 329 761.768 329 764 329Z" fill="white"/>
<path d="M298 391C298.029 394.312 298.047 397.625 298.062 400.937C298.071 401.883 298.079 402.829 298.088 403.803C298.091 404.702 298.094 405.601 298.098 406.527C298.103 407.36 298.108 408.193 298.114 409.051C298 411 298 411 297 412C291.39 412.66 285.78 413.32 280 414C280 448.32 280 482.64 280 518C266.5 520.25 266.5 520.25 260 520C259.866 485.651 260.134 451.338 261 417C259.577 417.247 259.577 417.247 258.125 417.5C253.448 418.067 248.711 418 244 418C244 411.4 244 404.8 244 398C249.059 396.735 253.25 395.727 258.301 395.219C259.444 395.099 260.586 394.979 261.764 394.855C262.935 394.738 264.106 394.621 265.312 394.5C271.875 393.836 278.378 393.176 284.855 391.906C289.336 391.036 293.444 390.828 298 391Z" fill="white"/>
<path d="M149 410C149 443.99 149 477.98 149 513C150.485 512.505 150.485 512.505 152 512C153.771 511.785 155.547 511.612 157.324 511.465C158.352 511.378 159.38 511.291 160.439 511.201C161.511 511.114 162.583 511.027 163.688 510.938C165.313 510.801 165.313 510.801 166.971 510.662C169.647 510.438 172.323 510.219 175 510C175 516.6 175 523.2 175 530C172.15 531.425 169.418 531.506 166.25 531.875C161.257 532.465 156.272 533.092 151.293 533.797C150.323 533.934 149.352 534.07 148.353 534.211C146.444 534.482 144.536 534.757 142.628 535.035C141.739 535.16 140.85 535.285 139.934 535.414C139.15 535.527 138.367 535.64 137.56 535.756C134.366 536.06 131.207 536.015 128 536C127.927 508.767 128.108 481.544 128.464 454.314C128.526 449.512 128.585 444.709 128.645 439.906C128.76 430.604 128.879 421.302 129 412C131.02 411.66 133.041 411.328 135.063 411C136.188 410.814 137.313 410.629 138.473 410.438C142 410 142 410 149 410Z" fill="white"/>
<path d="M803 155C812.192 164.11 820.362 173.552 828 184C833.954 191.895 840.078 199.631 846.358 207.269C849.084 210.594 851.769 213.947 854.391 217.355C854.891 218.005 855.392 218.655 855.907 219.325C857 221 857 221 857 223C857.66 223 858.32 223 859 223C859 223.66 859 224.32 859 225C852.73 225 846.46 225 840 225C839.278 223.536 838.556 222.071 837.812 220.562C835.348 215.626 832.723 210.798 830 206C829.196 206.021 828.391 206.041 827.562 206.062C825 206 825 206 824 205C811.007 205.553 800.765 215.374 791 223C790.102 223.694 789.203 224.387 788.277 225.102C781.951 230.065 775.912 235.362 769.855 240.648C767.415 242.777 764.962 244.888 762.488 246.977C751.578 256.197 741.054 265.85 731 276C729.89 277.111 728.779 278.222 727.668 279.332C727.098 279.902 726.527 280.473 725.939 281.061C723.293 283.707 720.646 286.354 718 289C718.595 291.022 719.267 293.023 720 295C722.032 295.969 722.032 295.969 724 296C724 296.66 724 297.32 724 298C713.442 298.185 713.442 298.185 709 297C710.247 292.428 712.767 290.046 716.082 286.875C718.584 284.429 720.84 281.808 723.125 279.16C726.69 275.053 730.356 271.037 734 267C736.25 264.501 738.499 262.001 740.746 259.5C742.253 257.828 743.766 256.161 745.285 254.5C749.643 249.716 753.783 244.837 757.777 239.746C759.422 237.714 761.087 235.743 762.816 233.785C770.009 225.638 776.291 217.25 782 208C782.366 207.407 782.732 206.814 783.109 206.203C790.872 193.466 796.225 180.412 800 166C800.582 163.875 801.165 161.75 801.75 159.625C802.168 158.084 802.585 156.542 803 155Z" fill="white"/>
<path d="M408.055 125.484C410.457 127.632 411.895 129.26 412.355 132.496C412 135 412 135 410.566 136.66C409.574 137.354 409.574 137.354 408.562 138.062C407.924 138.528 407.286 138.993 406.629 139.473C399.175 143.803 392.056 145.859 383.562 147.187C382.104 147.434 382.104 147.434 380.615 147.686C358.369 151.356 331.846 152.134 311.734 140.246C308.402 137.852 307.134 136.802 306.438 132.625C307 129 307 129 309.375 126.312C316.858 120.978 325.538 119.221 334.5 118.25C335.577 118.129 336.653 118.007 337.762 117.882C390.085 112.503 390.085 112.503 408.055 125.484Z" fill="white"/>
<path d="M631.888 116.664C634.261 116.688 636.634 116.684 639.008 116.678C646.877 116.692 654.342 117.04 662 119C663.494 119.315 664.989 119.624 666.484 119.93C667.907 120.243 669.329 120.558 670.75 120.875C671.465 121.023 672.181 121.171 672.918 121.324C677.644 122.391 681.172 123.876 685 127C686.158 130.747 686.385 132.923 685.063 136.625C677.719 145.081 666.673 147.159 656 148C652.998 148.128 650.004 148.143 647 148.125C646.157 148.122 645.314 148.118 644.445 148.115C637.294 148.059 630.147 147.872 623 147.625C621.987 147.594 620.974 147.563 619.93 147.532C610.548 147.163 601.124 146.356 592.438 142.563C591.467 142.151 590.496 141.74 589.496 141.316C587.117 140.062 585.608 139.141 584 137C583.292 131.426 583.292 131.426 584 129C587.299 125.803 590.675 124.066 594.938 122.438C595.937 122.044 596.936 121.651 597.965 121.246C609.308 117.52 620.055 116.537 631.888 116.664Z" fill="white"/>
<path d="M546.688 126.25C549.032 129.038 549.417 129.691 549.625 133.125C549 137 549 137 547.375 138.586C527.232 150.579 500.695 148.722 478.375 147.188C477.297 147.118 476.218 147.048 475.107 146.976C466.879 146.334 458.117 145.383 451.5 140C450.871 139.505 450.242 139.01 449.594 138.5C447.312 136.353 446.088 134.632 445.652 131.508C446 129 446 129 447.504 127.305C470.534 111.31 522.951 109.838 546.688 126.25Z" fill="white"/>
<path d="M326 387C326.106 412.012 325.816 437.019 325.536 462.03C325.475 467.569 325.415 473.108 325.355 478.646C325.239 489.431 325.12 500.216 325 511C322.982 511.51 320.96 512.007 318.938 512.5C317.812 512.778 316.687 513.057 315.527 513.344C311.935 514.012 308.645 514.111 305 514C304.912 487.824 305.154 461.655 305.464 435.481C305.525 430.217 305.585 424.952 305.645 419.687C305.761 409.458 305.88 399.229 306 389C308.208 388.661 310.416 388.329 312.625 388C313.855 387.814 315.085 387.629 316.352 387.437C319.617 387.046 322.717 386.919 326 387Z" fill="white"/>
<path d="M694 495C698.878 498.903 700.756 503.823 701.434 509.867C701.457 511.203 701.458 512.539 701.438 513.875C701.429 514.576 701.421 515.277 701.412 516C701.166 523.59 699.348 529.017 693.938 534.375C683.705 542.092 668.787 540.928 657 542C657.33 526.49 657.66 510.98 658 495C687.077 490.154 687.077 490.154 694 495Z" fill="white"/>
<path d="M468 387C470.7 388.8 472.542 390.084 474 393C474.107 395.148 474.149 397.299 474.161 399.45C474.166 400.112 474.171 400.774 474.176 401.456C474.191 403.652 474.198 405.847 474.203 408.043C474.209 409.57 474.215 411.098 474.22 412.625C474.231 415.832 474.237 419.039 474.24 422.246C474.246 426.344 474.27 430.442 474.298 434.539C474.317 437.697 474.322 440.855 474.324 444.013C474.327 445.523 474.335 447.033 474.348 448.543C474.365 450.663 474.363 452.783 474.356 454.903C474.36 456.107 474.364 457.311 474.367 458.552C473.842 463.479 472.19 467.26 469.375 471.375C465.803 473.819 462.294 474.337 458 474C454.463 471.937 453.296 470.887 452 467C451.895 464.814 451.851 462.625 451.839 460.437C451.834 459.774 451.829 459.112 451.824 458.43C451.809 456.24 451.802 454.05 451.797 451.859C451.791 450.333 451.785 448.807 451.78 447.282C451.769 444.08 451.763 440.879 451.76 437.678C451.754 433.588 451.73 429.499 451.702 425.409C451.683 422.255 451.678 419.102 451.676 415.948C451.673 414.441 451.665 412.934 451.652 411.427C451.635 409.311 451.637 407.197 451.644 405.081C451.64 403.88 451.636 402.679 451.633 401.441C452.113 396.945 453.26 392.681 456.613 389.441C460.527 387.417 463.498 386.217 468 387Z" fill="#0B1A26"/>
<path d="M522.625 515.938C525.983 518.854 525.983 518.854 526.238 521.074C526.41 527.118 525.922 530.343 522 535C523.207 536.423 523.207 536.423 524.438 537.875C527.919 541.982 528.367 544.501 528 550C526.612 554.163 525.42 555.704 521.812 558.25C515.488 561.413 508.873 562.222 501.938 563.125C501.265 563.213 500.592 563.301 499.899 563.391C495.513 563.922 491.466 564 487 564C487 548.49 487 532.98 487 517C517.473 512.647 517.473 512.647 522.625 515.938Z" fill="white"/>
<path d="M360 538C362.384 540.384 362.296 540.994 362.312 544.25C362.237 548.477 361.24 551.36 359 555C358.34 555 357.68 555 357 555C357.433 555.401 357.866 555.802 358.312 556.215C361.526 559.495 363.443 561.859 363.562 566.562C363.235 570.659 362.497 573.645 360 577C354.766 580.45 349.316 581.824 343.187 582.687C342.406 582.807 341.624 582.927 340.819 583.05C328.014 584.958 328.014 584.958 323 585C321.306 583.306 321.868 581.193 321.861 578.931C321.866 578.191 321.87 577.45 321.875 576.687C321.878 575.534 321.878 575.534 321.881 574.358C321.965 562.233 322.513 550.114 323 538C350.664 531.612 350.664 531.612 360 538Z" fill="white"/>
<path d="M216 193C217.031 193.392 218.062 193.784 219.125 194.187C219.744 194.456 220.362 194.724 221 195C219.896 198.311 219.361 198.741 216.633 200.68C215.922 201.189 215.211 201.699 214.479 202.224C213.702 202.769 212.925 203.314 212.125 203.875C211.319 204.449 210.512 205.022 209.681 205.614C203.267 210.158 196.792 214.615 190.283 219.024C185.982 221.94 181.72 224.901 177.496 227.93C176.135 228.901 176.135 228.901 174.746 229.893C172.99 231.149 171.24 232.412 169.497 233.683C168.705 234.248 167.913 234.813 167.098 235.395C166.402 235.898 165.706 236.402 164.989 236.921C163 238 163 238 159 238C155.921 228.764 157.65 218.576 161.457 209.875C166.188 201.059 173.754 194.989 182.937 191.125C193.273 188.068 206.132 188.897 216 193Z" fill="white"/>
<path d="M230 208C230.66 208 231.32 208 232 208C239.745 221.432 239.745 221.432 238 228C234.827 231.413 230.952 233.58 227 236C225.308 237.179 223.643 238.391 221.979 239.609C216.026 243.967 209.937 248.115 203.765 252.155C200.358 254.392 197.024 256.693 193.742 259.109C193.034 259.623 192.325 260.136 191.595 260.664C190.232 261.655 188.88 262.662 187.542 263.685C184.143 266.133 182.587 266.999 178.273 267.008C174.96 265.988 173.453 265.193 171.125 262.688C170.55 262.093 169.975 261.499 169.383 260.887C167.926 258.899 167.415 257.409 167 255C174.914 248.806 182.958 242.826 191.124 236.967C196.878 232.831 202.557 228.603 208.211 224.331C213.295 220.5 218.452 216.78 223.661 213.12C225.936 211.516 228.027 209.973 230 208Z" fill="#C63A29"/>
<path d="M630 498C633.63 498 637.26 498 641 498C641.025 504.372 641.043 510.744 641.055 517.116C641.06 519.285 641.067 521.454 641.075 523.623C641.088 526.736 641.093 529.848 641.098 532.961C641.103 533.935 641.108 534.909 641.113 535.912C641.113 536.813 641.113 537.714 641.114 538.642C641.116 539.437 641.118 540.232 641.12 541.051C641 543 641 543 640 545C636.925 546.345 634.294 546.611 631 546C627.415 543.157 624.813 539.586 622 536C620.221 533.948 618.395 531.942 616.562 529.938C615.739 529.018 614.915 528.099 614.066 527.152C612.187 524.954 612.187 524.954 610 524C610 532.58 610 541.16 610 550C606.04 550 602.08 550 598 550C598 534.16 598 518.32 598 502C609 502 609 502 612.418 504.527C613.373 505.637 614.297 506.775 615.188 507.938C615.643 508.482 616.099 509.027 616.568 509.588C618.064 511.377 619.531 513.189 621 515C623.64 517.97 626.28 520.94 629 524C629.33 515.42 629.66 506.84 630 498Z" fill="white"/>
<path d="M442.687 525.875C446 528 446 528 448 530C447.79 532.728 447.315 534.519 445.812 536.812C443.088 538.598 441.194 538.383 438 538C437.237 537.484 436.474 536.969 435.687 536.437C431.704 534.307 428.269 534.708 424 536C421.294 538.198 419.552 539.896 418 543C417.484 548.182 417.572 552.738 419.25 557.687C423.114 560.937 426.21 560.554 431.125 560.406C433.913 560.012 435.686 559.586 438 558C438.33 557.01 438.66 556.02 439 555C435.37 555 431.74 555 428 555C427.902 548.066 427.902 548.066 428 546C430.41 543.59 436.026 544.012 439.289 543.598C443.014 542.998 446.4 542.106 450 541C450.205 544.187 450.328 547.371 450.437 550.562C450.496 551.458 450.555 552.353 450.615 553.275C450.713 557.093 450.754 559.882 448.575 563.113C445.523 566.25 442.204 568.849 438.312 570.875C437.587 571.264 436.861 571.654 436.113 572.055C430.31 574.651 424.529 574.768 418.5 572.937C412.827 570.153 407.506 566.046 405 560.125C402.543 551.776 403.878 544.584 408 537C415.61 525.454 429.565 519.564 442.687 525.875Z" fill="white"/>
<path d="M568 508C569.541 510.669 570.792 513.183 572 516C572.35 516.802 572.701 517.605 573.062 518.432C574.182 521.031 575.28 523.639 576.375 526.25C579.336 533.261 582.413 540.106 586.004 546.82C587 549 587 549 587 552C582.947 552.982 579.161 553.082 575 553C573.539 550.353 573 549.106 573 546C571.987 546.144 570.974 546.289 569.93 546.438C568.578 546.625 567.227 546.813 565.875 547C565.21 547.095 564.545 547.191 563.859 547.289C559.874 547.836 556.021 548.1 552 548C551.732 549.093 551.464 550.186 551.188 551.313C549.676 556.005 549.676 556.005 547 558C544.738 558.293 544.738 558.293 542.312 558.188C541.1 558.147 541.1 558.147 539.863 558.105C539.248 558.071 538.634 558.036 538 558C538.473 550.775 541.411 544.553 544.188 537.938C544.686 536.736 545.184 535.534 545.697 534.295C547.124 530.86 548.561 527.43 550 524C550.665 522.396 551.329 520.792 551.992 519.188C555.71 510.29 555.71 510.29 558 508C561.643 507.129 564.467 506.656 568 508Z" fill="white"/>
<path d="M428 272C428.66 272 429.32 272 430 272C430.219 273.212 430.438 274.423 430.664 275.672C433.751 292.203 437.988 308.096 444.728 323.534C446.249 327.027 447.325 330.258 448 334C442.662 334.715 437.323 335.427 431.984 336.136C430.168 336.378 428.353 336.62 426.537 336.864C423.926 337.214 421.315 337.56 418.703 337.906C417.893 338.016 417.082 338.125 416.247 338.238C412.788 338.693 409.495 339 406 339C407.708 333.641 409.597 328.411 411.753 323.216C418.647 306.598 423.958 289.525 428 272Z" fill="white"/>
<path d="M243 244C240.328 274.696 240.328 274.696 233.062 281.25C231.098 282.703 231.098 282.703 229 284C228.224 284.543 227.448 285.085 226.648 285.645C218.336 289.899 207.422 286.705 198.961 284.266C195.857 282.939 194.186 281.538 192 279C199.095 273.558 206.31 268.356 213.696 263.317C218.913 259.756 224.091 256.144 229.25 252.5C229.965 251.996 230.68 251.491 231.417 250.971C234.102 249.073 236.768 247.181 239.359 245.156C241 244 241 244 243 244Z" fill="white"/>
<path d="M680.938 362.187C683.892 364.784 685.735 367.137 686.304 371.135C686.441 373.68 686.458 376.202 686.438 378.75C686.467 380.034 686.467 380.034 686.498 381.344C686.493 387.581 685.245 392.626 682 398C676.795 402.361 670.597 403 664 403C664 389.47 664 375.94 664 362C669.701 360.575 675.396 359.947 680.938 362.187Z" fill="#0E1C26"/>
<path d="M868 337C871.873 339.43 872.699 341.211 874.312 345.437C876.07 354.345 876.226 363.849 872 372C868.992 375.652 866.519 376.728 861.938 377.75C860.895 377.992 859.852 378.235 858.777 378.484C856 379 856 379 853 379C853 365.47 853 351.94 853 338C857.441 335.78 863.178 336.486 868 337Z" fill="#0B1A26"/>
<path d="M395 160C395 162.97 395 165.94 395 169C384.435 173.945 374.619 174.32 363.172 174.261C360.704 174.25 358.236 174.261 355.768 174.273C347.069 174.281 338.49 174.163 330 172C328.101 170.101 328.876 167.428 328.867 164.91C329 163 329 163 330 161C330.869 161.003 330.869 161.003 331.755 161.007C337.823 161.029 343.891 161.044 349.958 161.055C352.218 161.06 354.478 161.067 356.738 161.075C360 161.088 363.261 161.093 366.523 161.098C367.522 161.103 368.52 161.108 369.549 161.113C375.024 161.114 380.373 160.86 385.813 160.221C388.892 159.91 391.908 159.933 395 160Z" fill="white"/>
<path d="M464 160C471.491 160.904 471.491 160.904 474.703 161.509C480.227 162.331 485.782 162.186 491.355 162.185C493.466 162.187 495.577 162.206 497.688 162.225C505.557 162.256 513.051 161.77 520.834 160.431C524.257 159.965 527.55 159.931 531 160C532.158 163.473 532.069 166.361 532 170C514.143 175.484 494.296 175.089 475.875 173.125C475.135 173.047 474.395 172.968 473.633 172.888C469.86 172.425 467.466 171.733 464 170C464 166.7 464 163.4 464 160Z" fill="white"/>
<path d="M565 271C567.136 274.203 567.955 276.815 569.023 280.504C569.211 281.142 569.398 281.78 569.591 282.437C570.191 284.477 570.784 286.52 571.375 288.562C574.839 300.528 574.839 300.528 579.288 312.16C580 314 580 314 580 316C573.956 317.366 567.893 318.344 561.75 319.125C561.077 319.212 560.404 319.3 559.711 319.39C555.783 319.872 551.956 320.086 548 320C550.253 313.06 552.772 306.253 555.375 299.438C558.933 290.051 562.181 280.634 565 271Z" fill="white"/>
<path d="M600 159C613.302 160.825 613.302 160.825 619.188 162.125C631.608 164.408 644.229 163.408 656.484 160.754C659.979 160.005 663.458 159.468 667 159C668.322 161.645 668.097 163.678 668.062 166.625C668.053 167.628 668.044 168.631 668.035 169.664C668.024 170.435 668.012 171.206 668 172C662.659 172.746 657.444 173.158 652.047 173.168C651.312 173.172 650.578 173.176 649.821 173.181C647.464 173.19 645.107 173.19 642.75 173.188C641.949 173.188 641.147 173.188 640.321 173.188C630.853 173.177 621.43 173.077 612 172.125C611.22 172.047 610.44 171.968 609.636 171.887C605.858 171.437 603.47 170.735 600 169C600 165.7 600 162.4 600 159Z" fill="white"/>
<path d="M386.75 528.875C387.549 528.893 388.348 528.911 389.172 528.93C389.775 528.953 390.378 528.976 391 529C391.025 535.675 391.043 542.35 391.055 549.026C391.06 551.298 391.067 553.571 391.075 555.844C391.088 559.103 391.093 562.362 391.098 565.621C391.103 566.644 391.108 567.667 391.113 568.721C391.113 569.662 391.113 570.603 391.114 571.572C391.116 572.405 391.118 573.238 391.12 574.095C391 576 391 576 390 577C384.06 577.495 384.06 577.495 378 578C378 562.49 378 546.98 378 531C381.744 529.128 382.84 528.76 386.75 528.875Z" fill="white"/>
<path d="M240 300C241.413 301.452 241.413 301.452 242.699 303.324C243.181 304.015 243.663 304.707 244.16 305.419C244.664 306.167 245.168 306.916 245.688 307.688C246.22 308.461 246.753 309.235 247.301 310.033C251.545 316.234 255.653 322.519 259.66 328.876C261.922 332.462 264.194 336.041 266.467 339.62C267.719 341.592 268.969 343.564 270.216 345.538C270.792 346.446 271.368 347.354 271.961 348.289C272.474 349.101 272.988 349.912 273.517 350.749C274.976 353.028 274.976 353.028 276.69 355.169C278 357 278 357 278 359C274.514 359.558 271.474 359.698 268 359C266.369 357.304 266.369 357.304 265.031 355.047C264.53 354.228 264.029 353.409 263.513 352.565C263.014 351.718 262.515 350.872 262 350C261.027 348.46 260.051 346.922 259.07 345.387C258.088 343.821 257.106 342.254 256.125 340.688C252.746 335.313 249.349 329.96 245.813 324.688C245.2 323.772 244.588 322.857 243.957 321.914C242.905 320.348 241.852 318.782 240.791 317.222C239.516 315.342 238.257 313.453 237 311.563C236.402 310.693 236.402 310.693 235.792 309.805C233.551 306.404 232.511 304.09 233 300C236.155 298.948 237.004 298.835 240 300Z" fill="white"/>
<path d="M602 381C602.66 381 603.32 381 604 381C605.016 388.109 606.031 395.219 607.047 402.328C607.212 403.482 607.212 403.482 607.38 404.658C607.601 406.204 607.821 407.749 608.041 409.294C608.553 412.897 609.072 416.498 609.61 420.097C609.793 421.331 609.976 422.565 610.164 423.836C610.326 424.911 610.488 425.987 610.655 427.095C610.972 429.766 611.066 432.314 611 435C605.615 435.917 600.458 436.111 595 436C594.872 430.394 595.285 425.241 596.277 419.73C596.408 418.969 596.539 418.207 596.674 417.422C597.089 415.01 597.512 412.599 597.938 410.188C600.51 395.666 600.51 395.666 602 381Z" fill="#101B25"/>
<path d="M685.875 503.75C689.642 507.738 689.277 512.322 689.223 517.594C688.778 522.4 686.302 524.698 683 528C678.71 528.66 674.42 529.32 670 530C670 521.09 670 512.18 670 503C681.495 501.084 681.495 501.084 685.875 503.75Z" fill="#0A1824"/>
<path d="M215 434C215.33 434 215.66 434 216 434C216.265 435.65 216.265 435.65 216.535 437.333C217.191 441.418 217.849 445.503 218.509 449.588C218.793 451.356 219.078 453.123 219.361 454.89C219.769 457.432 220.179 459.974 220.59 462.516C220.716 463.304 220.842 464.093 220.972 464.906C221.629 469.018 221.629 469.018 222.535 473.08C223.124 475.511 223.095 477.752 223.062 480.25C223.053 481.142 223.044 482.034 223.035 482.953C223.024 483.629 223.012 484.304 223 485C217.919 485.847 213.152 486.09 208 486C207.797 479.094 208.331 472.632 209.531 465.836C209.687 464.918 209.842 464 210.002 463.054C210.494 460.16 210.997 457.267 211.5 454.375C211.838 452.397 212.175 450.419 212.512 448.441C213.333 443.626 214.163 438.813 215 434Z" fill="#0E1720"/>
<path d="M759 277C761.605 278.793 761.605 278.793 764.188 281.187C765.047 281.965 765.907 282.742 766.793 283.543C768.99 285.989 770.012 287.893 771 291C757.36 293.054 743.737 294.746 730 296C733.656 292.255 737.453 288.767 741.438 285.375C741.985 284.898 742.532 284.421 743.096 283.93C747.68 280.023 752.637 275.833 759 277Z" fill="white"/>
<path d="M869 162C871.437 163.625 871.437 163.625 873 166C873.561 169.366 873.67 171.697 872.082 174.785C869.997 177.64 868.466 178.903 865 179.625C861.103 178.813 859.528 178.123 857 175C856.286 171.532 856.292 168.468 857 165C860.528 160.402 863.627 160.437 869 162Z" fill="#0C1925"/>
<path d="M886.063 190.312C889 191 889 191 891.375 193.062C893.386 196.697 893.531 198.903 893 203C892 204.938 892 204.938 890 206C885.53 206.577 882.816 206.544 879 204C878.006 200.769 877.352 198.37 878.848 195.207C880.966 192.34 882.59 191.092 886.063 190.312Z" fill="#0C141F"/>
<path d="M841.625 136.375C844 137 844 137 846.375 139.188C848 142 848 142 848 144.438C846.753 147.634 845.001 150.224 843 153C839.191 152.74 837.44 152.417 834.625 149.75C832.808 146.676 832.132 145.472 833 142C835.73 139.143 837.742 137.3 841.625 136.375Z" fill="#061824"/>
<path d="M339.16 562.902C341.092 562.92 341.092 562.92 343.062 562.938C344.353 562.947 345.643 562.956 346.973 562.965C347.972 562.976 348.971 562.988 350 563C350.188 566.375 350.188 566.375 350 570C346.596 572.27 344.835 572.365 340.812 572.625C339.726 572.7 338.639 572.775 337.52 572.852C336.272 572.925 336.272 572.925 335 573C334.973 571.521 334.954 570.042 334.938 568.562C334.926 567.739 334.914 566.915 334.902 566.066C335.064 562.656 335.668 563.01 339.16 562.902Z" fill="#121927"/>
<path d="M499 543C501.291 542.946 503.583 542.907 505.875 542.875C507.789 542.84 507.789 542.84 509.742 542.805C513 543 513 543 515 545C514.625 547.625 514.625 547.625 514 550C508.788 552.138 504.545 552.168 499 552C499 549.03 499 546.06 499 543Z" fill="#171C21"/>
<path d="M303 152C307.389 152.665 310.981 154.188 315 156C315 159.3 315 162.6 315 166C310.475 165.468 307.612 163.729 304 161C302 158 302 158 302.375 154.812C302.581 153.884 302.788 152.956 303 152Z" fill="white"/>
<path d="M507.625 524.937C508.814 524.946 510.002 524.956 511.227 524.965C512.142 524.976 513.057 524.988 514 525C514.145 527.391 514.145 527.391 514 530C509.133 533.683 504.978 534.113 499 534C499 531.36 499 528.72 499 526C501.884 524.558 504.417 524.906 507.625 524.937Z" fill="#0D1527"/>
<path d="M348 545C349 546 349 546 349.062 549.062C349.042 550.032 349.021 551.001 349 552C344.352 554.399 340.089 554.2 335 554C335 551.36 335 548.72 335 546C339.377 545.3 343.564 544.789 348 545Z" fill="#121A20"/>
<path d="M562 523C565.402 527.05 568 531.636 568 537C562.06 537.495 562.06 537.495 556 538C559 527.286 559 527.286 562 523Z" fill="#181D19"/>
<path d="M689 152C689.61 159.203 689.61 159.203 686.75 162.937C684.212 164.841 682.982 165.395 680 166C679.717 162.292 679.558 158.699 680 155C683.137 151.95 684.599 152 689 152Z" fill="white"/>
<path d="M552 153C552.229 156.033 552.349 158.973 552 162C550.188 164.062 550.188 164.062 548 165C547.01 165 546.02 165 545 165C544.67 161.7 544.34 158.4 544 155C548 153 548 153 552 153Z" fill="white"/>
<path d="M444 153C446.31 153.66 448.62 154.32 451 155C451 158.63 451 162.26 451 166C446 165 446 165 444 163C443.805 160.617 443.805 160.617 443.875 157.875C443.893 156.965 443.911 156.055 443.93 155.117C443.953 154.419 443.976 153.72 444 153Z" fill="white"/>
<path d="M582 152C585.875 152.875 585.875 152.875 587 154C587.072 155.853 587.084 157.708 587.062 159.562C587.053 160.574 587.044 161.586 587.035 162.629C587.024 163.411 587.012 164.194 587 165C582.125 164.125 582.125 164.125 581 163C580.902 161.524 580.87 160.042 580.875 158.562C580.872 157.759 580.87 156.956 580.867 156.129C581 154 581 154 582 152Z" fill="white"/>
<path d="M415 152C415.46 155.143 415.489 157.244 413.734 159.957C412.224 161.757 410.769 163.451 409 165C408.34 165 407.68 165 407 165C407 161.7 407 158.4 407 155C412.75 152 412.75 152 415 152Z" fill="white"/>
<path d="M339.16 562.902C341.092 562.92 341.092 562.92 343.062 562.938C344.353 562.947 345.643 562.956 346.973 562.965C347.972 562.976 348.971 562.988 350 563C350 564.98 350 566.96 350 569C349.34 569 348.68 569 348 569C348 567.68 348 566.36 348 565C344.37 565 340.74 565 337 565C336.67 566.98 336.34 568.96 336 571C338.64 571 341.28 571 344 571C344 571.33 344 571.66 344 572C339.545 572.495 339.545 572.495 335 573C334.902 566.066 334.902 566.066 335 564C336 563 336 563 339.16 562.902Z" fill="#141415"/>
<path d="M889 191C889.66 191.99 890.32 192.98 891 194C888 195 888 195 884 195C884 195.66 884 196.32 884 197C882.039 198.389 880.038 199.726 878 201C878.31 197.593 878.688 195.44 880.688 192.625C883.682 190.521 885.415 190.454 889 191Z" fill="#19161C"/>
<path d="M501 525C505.29 525 509.58 525 514 525C514 526.65 514 528.3 514 530C513.01 530.66 512.02 531.32 511 532C510.01 531.34 509.02 530.68 508 530C508.66 530 509.32 530 510 530C510 529.34 510 528.68 510 528C505.545 527.01 505.545 527.01 501 526C501 525.67 501 525.34 501 525Z" fill="#1C1C20"/>
<path d="M842 138C842 138.99 842 139.98 842 141C841.34 141 840.68 141 840 141C840 141.66 840 142.32 840 143C838.35 143.66 836.7 144.32 835 145C835.66 146.65 836.32 148.3 837 150C836.01 149.67 835.02 149.34 834 149C833.25 145.75 833.25 145.75 833 142C835.53 138.205 837.533 137.504 842 138Z" fill="#0B1212"/>
<path d="M562 523C565.402 527.05 568 531.636 568 537C565.03 537 562.06 537 559 537C559 536.67 559 536.34 559 536C560.65 536 562.3 536 564 536C563.876 534.701 563.752 533.401 563.625 532.062C563.555 531.332 563.486 530.601 563.414 529.848C563.277 529.238 563.141 528.628 563 528C562.34 527.67 561.68 527.34 561 527C561.33 525.68 561.66 524.36 562 523Z" fill="#101214"/>
<path d="M506 543C508.31 543 510.62 543 513 543C513.33 544.65 513.66 546.3 514 548C510.713 548.8 509.29 549.097 506 548C506 546.35 506 544.7 506 543Z" fill="#05111C"/>
<path d="M499 526C500.65 526 502.3 526 504 526C503.34 526.66 502.68 527.32 502 528C501.67 529.32 501.34 530.64 501 532C504.3 531.67 507.6 531.34 511 531C508.137 533.863 506.341 533.994 502.312 534.062C501.219 534.042 500.126 534.021 499 534C499 531.36 499 528.72 499 526Z" fill="#111310"/>
<path d="M835 145C835.99 145.495 835.99 145.495 837 146C837 146.66 837 147.32 837 148C840.049 149.011 840.049 149.011 843 148C843.33 149.32 843.66 150.64 844 152C841.688 152.688 841.688 152.688 839 153C836.48 151.38 836.057 150.221 835.312 147.312C835.209 146.549 835.106 145.786 835 145Z" fill="#1F2127"/>
<path d="M839 137C841.25 136.688 841.25 136.688 844 137C846.375 139.188 846.375 139.188 848 142C847.75 144.812 847.75 144.812 847 147C846.01 147 845.02 147 844 147C844.103 146.092 844.206 145.185 844.312 144.25C844.34 140.803 844.34 140.803 841.5 138.625C840.675 138.089 839.85 137.553 839 137Z" fill="#25292B"/>
<path d="M598 408C600.044 412.088 600.186 412.987 599.625 417.25C599.514 418.142 599.403 419.034 599.289 419.953C599.194 420.629 599.098 421.304 599 422C598.34 422 597.68 422 597 422C597.33 417.38 597.66 412.76 598 408Z" fill="#222323"/>
<path d="M857 166C857.99 166.33 858.98 166.66 860 167C859.935 169.018 859.87 171.036 859.805 173.055C859.817 175.239 859.817 175.239 862 177C858.125 176.125 858.125 176.125 857 175C856.928 173.481 856.916 171.958 856.938 170.438C856.947 169.611 856.956 168.785 856.965 167.934C856.976 167.296 856.988 166.657 857 166Z" fill="#090E0F"/>
<path d="M561 528C561.66 528 562.32 528 563 528C563.731 529.977 564.394 531.981 565 534C564.67 534.66 564.34 535.32 564 536C563.01 536 562.02 536 561 536C559.875 530.25 559.875 530.25 561 528Z" fill="#111929"/>
<path d="M869 163C869.99 163.33 870.98 163.66 872 164C872.812 165.938 872.812 165.938 873 168C872.34 168.66 871.68 169.32 871 170C870.01 169.34 869.02 168.68 868 168C868.33 166.35 868.66 164.7 869 163Z" fill="#1E1E22"/>
<path d="M867 161C866.34 161.66 865.68 162.32 865 163C864.01 163 863.02 163 862 163C861.34 164.32 860.68 165.64 860 167C859.01 166.34 858.02 165.68 857 165C860.411 161.881 862.316 160.465 867 161Z" fill="#171E18"/>
<path d="M344 565C345.32 565 346.64 565 348 565C348 566.32 348 567.64 348 569C347.01 569.33 346.02 569.66 345 570C344.01 569.34 343.02 568.68 342 568C342.66 567.01 343.32 566.02 344 565Z" fill="#091821"/>
<path d="M324 316C324.66 316 325.32 316 326 316C326.99 318.97 327.98 321.94 329 325C326 324 326 324 324.812 322.188C324 320 324 320 324 316Z" fill="#C1473D"/>
<path d="M342 569C344.64 569 347.28 569 350 569C348.812 570.562 348.812 570.562 347 572C344.312 571.688 344.312 571.688 342 571C342 570.34 342 569.68 342 569Z" fill="#1A2221"/>
<path d="M868 369C869.32 369 870.64 369 872 369C871.688 370.875 871.688 370.875 871 373C869.515 373.99 869.515 373.99 868 375C868 373.02 868 371.04 868 369Z" fill="#081013"/>
</g>
<defs>
<clipPath id="clip0_1_3">
<rect width="1024" height="1024" fill="white"/>
</clipPath>
</defs>
</svg>
